<svg xmlns="http://www.w3.org/2000/svg" xmlns:xlink="http://www.w3.org/1999/xlink" viewBox="0 0 840 432" preserveAspectRatio="none"><defs><style>.block{fill-rule:evenodd;fill:url(#grad);}</style><linearGradient id="grad" x1="838.36" y1="111.37" x2="78.13" y2="306.19" gradientTransform="matrix(1, 0, 0, -1, 0, 433)" gradientUnits="userSpaceOnUse"><stop offset="0" stop-color="#093b6d"/><stop offset="1" stop-color="#314f98"/></linearGradient></defs><path class="block" d="M0,32.5,13.63,0H249.72l4.21,7.35,16-.47,2.49,9.31L296.83,0H542.16l50.67,14.23-1.54,5.52,14.64-2.2-4.63-6.22,22.88-.89V0H753.72l8.89,12.87,16.47-4.45L785.72,0h16.47L840,41.33v64.05L819.5,251l11.55,15.12-8.47,8,17.42,24v90.26L795.91,432H737.24l-16-23.6-18.19,8.42L685.27,412,671.94,432H397.69l-55.11-25-31.11,25H205.69L180.8,418.6l-23.11-9.79-8.89,16.9-8,6.29H50.13L0,395.47V349.21l13.63-17.73L0,311.85V107.57L29.93,66.3Z"/></svg>