<svg xmlns="http://www.w3.org/2000/svg" viewBox="0 0 1575 2314">
<path fill="#ffffff" style="opacity:0.01" d="M882.59,2089.79c-8.51-1.27-22.1,8.51-38.86,1.52-19.94-8.25-37-68.72,39.24-50.81,29.2,6.61,6-1.52,22,11.18,23,18.29,16.63,4.32,18.16,50.05,18-9.91-4.7-3.68,16.25-15.12-6.35,16.26-11.68,70.89,17.53,50.82,7,24.13-2-22.87,0,6.22l6.09,19.18a124.7,124.7,0,0,1,1.53,44.46c-24.64,5.34-24.77,18.17-46.61-8.13-10.41,8.9-28.95,36.08-34.92-6.35,8.12-14.61,9.27-8,23.11-16.64-13.46-20.32-23.62-4.83-33.27-32.39s3.93-33.16,10.28-53ZM1420.65,96.42l-15.75,14.1,11.81,25.4c-25.4,52.47-29,15.25-60.45,15.63a143.28,143.28,0,0,0-12.7,23.75c-87.24-12.7-56.51-80.92-22.22-88.92,32.13-7.24,8.76-21.21,37.08-30,21.84-6.73,16.89,0,23.24,5.46C1397,75.84,1393.85,95.4,1420.65,96.42ZM825.19,1286.06c17.14,29.22,25.39,81-30.74,88.93-7.87-8.64-27.68-26.81-29.2-38.11a9.52,9.52,0,0,0-1.53-3.94c-2.28,11.18,5.21,8.26-23.11,18.42C733,1331,720.55,1332.05,726.26,1304c11-54.76,50.8-14.49,50.8-14.49a36.9,36.9,0,0,0,32,7.37C817.31,1294.07,813.63,1291.78,825.19,1286.06ZM615.91,671.49a17.79,17.79,0,0,1,2.92,0c29.2-5.21,3-6.74,43.55-26.17l9.66-4.83c19.68-8.89,33-8.38,40.25,21.85-.89,1.27,4.57,19.56-30.35,23.5l18.8,39.51c-22.48,3-2.54,7.49-28.07,27.82l-10.16,5c-14.73.89-25.4-20.83-39.11-28.07,6.86-21.09,15.87-15.88,10.41-36.46-7.24-27.18-17.52-9.4-20.57-18.8,0-1.78-2.29,0-3.3-1.4ZM1430.3,1992.87c33-21.85,16.38-41.29,65.78-22.11-1.27.64-1.65,4.45-1.53,5.72l4.32,10a44,44,0,0,1,10.42,23.5,28.68,28.68,0,0,1-12.7,4.83c-7.75,2.8,1-.76-5,1.65l-2.41,1.15a28.2,28.2,0,0,0-2.67,1.39,219.29,219.29,0,0,0-19,11.56c-20.32,15.37-38.1,23.63-49-5.59-12.7,6.61-37.08,12.71-48.64,4.07,3.55-14.86,3.3-4.45,10.41-23.12C1394.1,1972,1385.72,1967.2,1430.3,1992.87Zm-370.82-722.94a34.12,34.12,0,0,1,29.08,3.56v13.84c0,15.63-1,19.69,11.18,32.65-21.08,11.94-13.84,12.7-16.13,14.74a57.88,57.88,0,0,1-19,7.87c-6,0-45.46,0-48.63-.63-6.35-26.55-7.75-11.44,19.93-55.9,9.91-14.48,4.45-11.17,24.26-16.13Zm368.28,937.87c-24.64,11.69-28.19,52-62.74,56.28-23.74-38.11-16.63-47-1.52-84.73h41.4c0,1.14,1.27,2.92,1.78,3.68l1.77,3.43c0,.89,1.27,2.41,1.91,3.3Zm71.62-355.43c.76,24.39-8.25,53.35-20.06,61.48s-27.31-10.8-39.63-19.82a82.06,82.06,0,0,1,4.19-42.55c12.83-28.46,37.21-14.23,55.5.38Zm-84.2,428c-1.9-19.06-2.79-1.53-6.22-27.44,5.08-21,11.94-23.76,26.42-33.67,22.6,6.74,11.17,11.44,30,17.15-3.81,6.36-7.62,12.71-12.7,20.33,6.47,20.83,7.87,12.7,12.7,29a50.65,50.65,0,0,0-12.7,6.86l-2.54,2.29C1413.91,2326.45,1417.6,2301,1415.18,2280.34ZM0,904.34V791.15l12.7-4.06c11.43,23.62,12.7,15.37,16.76,19.3-3.81,14.36-4.57,3.94,0,17.28L37,836.37c0-.89,1.53,2.16,2,3.43-22.48,43.07-8.77,29.73-9.27,50.82C30,916.28,12.57,912.72,0,904.34ZM850.84,176.19l.76,35.19c-19.05,19.05-6,25.41-22.6,38.11-18.16-11.81,4.57,3.56-19.56-30a38.11,38.11,0,0,1-9.78-39.13c9.53-37.22,36.32-19.94,51.81-4.19Zm-302,346.16,9.4-9.4c11.18-12.7.64-10.8,12.7-11.68,23.88-1.78,4.83-1.78,12.7,7.49,7.62,13.72-3.81,15.24-11.18,21.85L569.93,533C554.44,547.89,548.6,563.89,521,552l-20.31-12.7c6.34-25.41,12.69-39.89,27.55-48,9.53,7.24,3.18-.89,10.29,9.78ZM151.25,1546.48c-3.69-16.26-7.24-46.24-1.78-60.47,19.68-4.06,36.57,12.7,41.91,33.54,9.14,36.07,24.12,39.76,10.15,54.24-25.39,12.7-15.23-19.69-23.87-36.2a30.47,30.47,0,0,1-25.78,8.89Zm1025.07,543.31c-9.53,44.72-30.48,50.81-56.39,23.25v-28.71C1150.92,2051.68,1151.81,2063,1176.32,2089.79Zm-342.88,96.92c10.79-9.14,10-18.67,25.4-11.43,11.81,5.59,8.13,17.66,6.22,27.95-34.29,15.62-9.9-17.91-41.27,2.41-19.56,12.71-24,15.37-42,.76V2181C803.6,2160.8,813.63,2174.52,833.44,2186.71ZM228,130.21c-6.86,17.53-2.29,34-26.8,36.58s-25.39-15.11-25.39-40C207.5,89.94,217.54,108.1,228,130.21ZM480.79,1509.38c-6.86-7.87-3.18-.76-4.45-10.54,15.75-18.67,5.84-4.06,23.24-5.46,12.7-1.14,19.56-11.05,28.45,1,9.9,28.21-.89,34.68-21.72,38.11-18.66,3.18-1.65,0-17.4,9.4a174,174,0,0,1-25.39,9.53c4.7-22.1,7-31.12,27.93-33.28Zm-4.45-764.6c-11.93-1.27-3.55,3.31-15.62-3.43,1.78-25.4-5.58-15.24,11.69-21,23.11-7.49,24-36.45,55.11-8.51l-1.14,27.82C503.26,756,494.38,746.82,476.34,744.78Zm-181.85,734c16.13,5.46,15.11-4.06,39.12-5.84A42.11,42.11,0,0,0,350,1486.39c-6.35,30.87,8.51,17.91-7.11,32.27l-5.72,3.94c-35.05,23-38.1-18.3-42.67-43.83-6.86,2.54-42.16,29.47-76.19,18.42-10.42-25.41-2.54-33.54-14.23-48.27-14.73-18.42,14.1,17.91-4.57-4.58a55,55,0,0,1-4.19-62.49c18.92-35.7,29.46-22.74,36.58-23.51s17.65-17.4,28.31,12.71c5.34,15.24-1,17.65.89,38.11,20.58,16.64,8.64,14,36.83,9-.76,2.54-4.82,13.33-4.95,13.72a24.19,24.19,0,0,0-1,11.17C291.7,1449.43,294.37,1467.34,294.49,1478.77ZM1103.42,1428c3.94-41.54,57.66-32.14,59.56-8.77,2.16,26.93-42.16,37.86-59.56,8.39Zm-146.54,627.4c-25.4-10.16,0-12.7-24.51-17.78-17.27-3.3-10.16,6.86-23.12-11.81,7-45.23,30.74-24,47.24-10.8,4.45,3.68,10.67-2,12.7,30.74a43.46,43.46,0,0,1-12.31,9.27Zm198.35,201.73c-25.39,0-47.62-22.1-25.39-46.49s36.32,13.84,43.55,26.29c-17.39,10.55-2.41,3.18-18.16,19.82ZM1066.34,770.83c-16.38-10-2,3.55-12.7-18.55-13.71,2.41-22.35,4.7-33.78-2.92-2.41-23.38-2.79-10.8,3.43-25.41l8.38-16.39,2.29,2.54,2.41,2.42,9.27,10c43.81,52,7-.76,37.34,23.38-4.32,18.29-1.78,17.66-16.38,24.51Zm-127,302.33c-8.89-36.71,31.49-44.84,35.18,12.7,1.65,26.43-9.15,22.87-27.69,20.58Zm285.6,1.4c-2-22,0-34.68,14.35-38.11,17.4-5.08,16.13,6,35.31,7.62-13.46,18.42-10.93,60.72-49.91,30.11ZM109.59,412.22c-6.85,14-6.47,11.94,3.31,25.4-8.51,9.78-14.61,15.88-22.61,26.68-14.86-34-22.1,3.68-24.51-47.51C94.23,390.88,80.89,407.9,109.59,412.22ZM698.7,170.86c-17.39-9.28-21.08-10.67-22.73-38.11,11-12.71,26.29-31.63,39.88-3.43,10.16,20.32-5.21,33.79-17.27,41.16Zm-536.15,6.48c-22.48,0-18.92-6.23-26.16-33.16s4.44-27.69,27.05-28.84a72.89,72.89,0,0,1-1,61.61Zm414,375.37c17.4-11.3,25.4-3.05,44.7-5C619.08,615,573.24,601,576.54,552.71Zm753.43,570a42.53,42.53,0,0,1-39.74-9l.38-23.5c17.52-15.37,25.4-14.1,40.13,0C1330.23,1097.42,1336.58,1106.7,1330,1122.7ZM900.24,175.81c0,20.83,0,31.38-14.73,34.68a20.44,20.44,0,0,1-24.26-17.91C853,153.33,887.92,165,900.24,175.81ZM735.15,759.14c-15.11-12.71-11-6-22.86-26.3,12.7-22.23,4.7-11.05,20.83-27.18l24.13,17c-6,22.1-.64,12.7-14.23,31.12a91,91,0,0,0-5.33,7.75,22.31,22.31,0,0,0-2-2.41ZM621.75,68.22l1.39,26.16c-23.87,19.06-43.3,13.72-36.19-30.1,14.73-7,23-10,35.31,3.94ZM759.41,2163.47c16.76,33-2.67,56.78-22.48,39.5C721.18,2189.38,724.86,2151.53,759.41,2163.47Zm129.4-973.31c-4.95,12.7-10.54,28.45-25.4,19.69a62.32,62.32,0,0,1-16.51-29.48c-2.92-16.38,8.38-17.27,18.29-12.7a40.9,40.9,0,0,1,23.62,22.49ZM52.7,528.32c-8.13,27.44-1.65,34.68-22,44.21-.76-.89-2-3.43-2.41-2.54s-1.91-2-2.29-2.67C7.11,540,12.32,506.6,52.7,528.32Zm1027.86,912.47a19.17,19.17,0,0,1-21.78,6.86,19.37,19.37,0,0,1-6.92-4.19c-11.3-9.53-6-21.35-3.42-32.65,25.65-10.67,46.6,9.14,31.74,30ZM592.16,618.9c-12.7,9.52-2.54,4.32-18.16,3.93l-1.27,30.87c-28.32-5.59-10.16,0-27.69-14.35,8.64-15.12,6.35-20.83,26.42-19.18l-.76-25.41C592.16,596.67,588,587,592.16,618.9Zm-505.43,1410c16.89-26.8,9.4-32,34.93-24.39,7.36,27.06-2.54,20.58-15.75,31.76s-7.24,23.88-27.56,10.8c4.07-24.27,0-5.85,8.13-18.68Zm1422.56-696.51c12.69-4.83,11.68-19.94,26.16,2.29-7.5,19.69,0,2.92-12.7,16-9.66,10.67-5.34,12.71-14.35,16.64C1493.79,1373.72,1470,1347.29,1509.29,1332.43ZM1106.22,738.56c-12.7-9.53-12.07-1.14-17.15-21.09,23.11-34,23.37,11.82,23.37,11.82,3,20.07,4.19,5.33,8.13,19.69C1130.6,785.18,1068.63,766.76,1106.22,738.56ZM1540.65,16c2.29,48.27-28.06,39-33.52,20.32C1497.73,4.7,1531.89,4.57,1540.65,16ZM566.76,1478.39c-1.52,12.7-10.29,17.28-19.94,31.76a63.56,63.56,0,0,1-9.27-50.82C551.9,1454.63,569.43,1453.62,566.76,1478.39ZM1234.22,182.67c-9.65-34.81,14.1-45.35,25.4-32.39,12.07,15.37,9.78,50.56-25.9,32.9Zm241.29,1107.08,34.41-25.66c5.84,15.62,10-7.62,4.83,32.14-18,13.72-35.82,26.55-39.24-6ZM741.25,1778.06c-29.47,20.32-48.9,15.37-30.61-26.43l22.22-2.28ZM504.79,1585.35,496,1568.2c-15.62,11.18-13.85,3.68-18.93,0,7.5-20.58,0-7,17.66-17.91,39.11-23.76,35.93,2.92,10,35.57Zm-39.62-118c-11.81-20.71-12.7-27.44,4.32-43.7,16.89,4.06,15.49,3.94,21.33,22.48C485.36,1467.34,484.72,1467.34,465.17,1467.34Zm-50.42,14.86c-15,15.5-48.51,4.45-20.82-36l14.85,10.42a28,28,0,0,1,2.29,2.92c9.65,14.1,6.1,6.22,3.3,22.48Zm-66.54,190.55c0-38.11,7.24,1.14,3.94-23.5,0-2.93-2.93,2-3.94-13.6-1.4-22.35-1.4,0,2.92-11.94,12.06,18.68,0,8.77,13.71,17s3.18-8.89,16.77,11.56c-7.11,24-14.35,16.65-33.4,19.82ZM60.45,473.45c-12.7,10.41-2.29,6.73-18.16,2.92a96.68,96.68,0,0,1-20.32-7c.76-25.41,0-22.86,17.78-27.82a104.89,104.89,0,0,1,20.7,31.25ZM905.06,766.38c-5.08-44.34,22.48-40.91,35.82-3.3C925.38,766.51,922.33,771.72,905.06,766.38ZM555,120.81l1.9,25.4c-30,27.57-39.11-29.72-16.88-29.72A38,38,0,0,1,555,120.81Zm-341.73,1706c-2.16-27.44,9.9-36.46,29.59-26.55,0,0,17.27,6.73-5.59,24.39a26.44,26.44,0,0,1-24,1.9ZM1264.07,240.22c-4.58,3.17-10.93,10.54-19.43,6.6a19.31,19.31,0,0,1-10.29-23C1238.16,204.65,1262.92,199.82,1264.07,240.22ZM1259.88,1663c-8.39,25.4,2.41,8.89-.77,39.12l-25.39,4.19c-1-16.13-1.53-3.81,1.77-17.78,9-36.59,5.59-26.3,24.39-25.66ZM509.11,690.41c2.92-25.4,7.49-16.13,9.77-27.56,2.8-14.74-5.71-16,12.7-29.34,2.92,4.06,4.7-7.63,7.37,13.71,1.78,15.63-1.14,7.88-5.46,16.64l-7.37,18.68C516.85,696.89,524.85,689.53,509.11,690.41ZM623.4,1555.88a34.85,34.85,0,0,1-8.13-20.45c10.29-18.3,17.65-17,34-7.88-4.95,20.58-1,27.06-25.39,28.71ZM1106,1695.61s7.62,25.41-30.6,11.18c1.14-32.77,25.65-44.21,30.73-10.8ZM109.59,536.83C92.45,557.41,101.34,533,69.21,545c3.56-14,0-6,7.37-19.3C95.24,493.52,102.48,523.88,109.59,536.83ZM25.91,2197.13c1.39-36.2,20.82-33.79,35.17-17.15-9.14,18-14.09,25.41-34.67,17.15ZM181.09,488.43c-14.1,11.95-14.73,20.46-33.15,8.26-5.46-20.58-1.39-22.1,14.48-29.34ZM1301.66,1516.24c15.36-3.81,15.62,7.88,19.55,19.57-12.06,8-15.24,13.46-33.52,8.25C1286.42,1526,1287.69,1519.8,1301.66,1516.24Zm210-446.26c-15.11,9.15-5.59,6.86-23.24,2.8-.89-31.38-5-34.17,20.83-32C1514.62,1059.19,1515.51,1053.34,1511.7,1070ZM784.93,1790.12c4.06,12.71,9.78,19.06,1.78,29.73C770,1842,737.18,1807.91,784.93,1790.12Zm272-968.23c-16,3.69-11.93,2.41-22.22-8.25a30.26,30.26,0,0,1-11.81-18.81l8.64-10c11.81,2.92,11.17,5.08,18,15.37C1059.74,815.41,1056.82,797.12,1056.94,821.89Zm361.42,245.93c-23.11,18.42-13.46,6.61-28.32-14.73-8.63-12.7-4.57,0-7.62-22.1l21.08,5c0,1.27.89,3,1.27,4.32,3.94,11.18-2.54-1,3.68,11.43C1432.84,1100.34,1409.6,1039,1418.36,1067.82Zm-515.07,893.8c-10.42,52.59-54.61,1.14-12.7-12.71C901.51,1956.15,895.67,1950.06,903.29,1961.62ZM674.32,170.1c-6.73.63-3.68,3-8.89-1.53l-5.71-8.77c-12.7-18.54-15-12.7-11.3-27.81,6.34-4.07-9.4-6.36,10.28-4.83s12.7,22.48,12.7,27.56c1,13.34-.76,4.2,3.05,15.76ZM175.63,1623.59a40.15,40.15,0,0,1,0-33.54l19.81,3.18,2,8.76c2.29,53.61,7.11-21.34-4.32,22.48ZM1460,1115.46h-22.47c-6.48-27.69-2.8-23.75,15.36-28.71l8.26,16.26c4.44,4.07,1.77-9.27,10.54,9.66ZM352,1569c-10.54,6.73-28.83,27.7-15.37-2.41,9.91-22.36-1.27-17,13.72-17.15l10,4.06c4.83.89,10.16-1.9,17.78,3.82C359.77,1588.53,376.27,1553.72,352,1569ZM1044,327.23c-30,5.08-38.1-23.88-6.73-31.37C1048.56,309.19,1048.18,309.32,1044,327.23ZM69.72,1135.15c.89,27.69-2.8,29.6-24.51,25.41C41,1129.18,51.81,1126.13,69.72,1135.15Zm321.54,649.77c.76-23.63,4.57-27.06,24.25-26.3C425.17,1783.39,410.82,1796.35,391.26,1784.92ZM220.71,673.27c-9.9,9-31.37,20.45-40-5.47,6-8.38,7.62-22.23,40,5.08Zm35.56-558-1-18.68c42-26.55,32.13,40.78,1,18.3Zm348.59,74.69c-13.46,9.91-17.15,14.23-26-6.35,9-25.41,2.54,0,11.31-18.42,9.52-20.58-4.45,6.35,1.65-7.75,7.74-17.53-7.24,4.32,4.57-5.84Zm591.9,322.92V493.64l34.8-8.38-12.07,20.45c-.89,2.41,4.45,14.74-22.09,7.5Zm-468,736.78c-5.71-21.6,11.3-28.71,25.4-9.53-4.32,13.46,4.44,14.23-10.16,19.43-6.22,2.42-12.19-1.27-14.6-9.78Zm94.48-173c33.53-12.7,38.73,30.74,0,24.52ZM333.73,1450.44c-1.14-25.4,4.32-29.6,24.51-25.4.64,27.31-.51,31.5-23.87,25.53Zm144.14-1300c-7.5,15.25-15.88,29.6-34.29,10.93,2.92-11.05,1.9-14.48,12.7-16.9A39.93,39.93,0,0,1,477.87,150.4Zm604.47,677.46c1.78-19.94-1.52-12.7,6-26.29,10.67,5.08,12.7,3.55,11.56,19.18-1,13.34-20.83,47.89-17.27,7.11ZM792.42,726.24c12.7-7.37,8.77-6.86,23.75,0-4.95,36.84-31.87,33.15-23.49,0Zm321.16-470c-11.55,15.63-17.27,15.37-26.16-5.84,3-7.75,2.8-15.88,12.7-14.48s11.81,8.38,13.72,20.2ZM374.24,1597.16c15.37-20.32,25.4-9.52,25.4,16.14L380,1618.63ZM908.37,98.2l-1.15,16.51c-15.36,11.94-21.08,9.27-24.51-14.61,6.73-6.48,17.91-14.61,25.91-2.67Zm-869,18.41c0,28-13.72,32.91-20.32,20.46C6.6,111.79,30.86,107.21,39.62,115.85ZM165.09,232.47c-7.62,13.59-3.3,11.56-16.13,18.67l-14-16c10.41-21.72,18-18,30.35-3.42Zm1211.62,1527c-8.89,19.56,3,12.7-24,16.51-13.59,1.91-12.7,5.47-17.66-14.48ZM446,510.16c-17.4,20.7-18,4.82-24.38-4.2l-9-17.27C423.13,485.39,439.77,495.93,446,510.16ZM152.26,1381.34c23.75-4.45,9.65-3.94,16,9-3.17,2.92,0,17.53-30.47,9C138.55,1383.62,135,1384.64,152.26,1381.34Zm541.49,476.87c4.57-21.21,8-23.37,25.4-18.29v17.78C706.45,1864.82,707.72,1866.85,693.75,1858.21ZM488.41,1752c9.78-17,3.43-12.7,16.76-22.86l11.43,11.56c-10,20.07-12.45,28.83-27.94,11.3ZM375.64,85.87c1.78-20.45,3.55-17.65,23.11-18.16C400,96.42,390,103.15,375.64,85.87ZM327.51,503s-16.26-4.44,3.81-21.08a94.38,94.38,0,0,1,20.44-9.28C345.29,490.34,344.53,505.84,327.51,503ZM798.65,1218c-25.4-3.31-15.75-5.72-28.58-20,12.7-11.81,3.18-6.73,22-8.13Zm66.67,1012.31c11.3-3.81,12.69,2.79,16.12,5.33-5.2,9.78-2.66,33.28-26.16,11.18C858.84,2233,853.12,2234.48,865.32,2230.29ZM452.47,1157.76c28.83-5.08,28.32,28.2-1.78,26.42Zm716-419.2c-11.68-6.86-5.59-9.53-6.73-16,16.64-14.1,25.4-3.81,24,10.8-.12.89-1.14,14.61-16.76,5.59ZM1417.6,1255.7c-2.54,11.69-4.57,9-12.7,11.69-11.05-21.6-8-26.68,8.63-31.63C1417.6,1242.49,1421.15,1241.22,1417.6,1255.7Zm124.32-112a34.08,34.08,0,0,1,0-13.72l2.8-7.37c13.71-8,20.31-8.63,16.76,23Zm-1363,562.88a34.42,34.42,0,0,1-5.08-32.52c8,2,16.38-1,17,18.29.76,14.74-3.3,10.42-11.69,14.23Zm953.57-206.17c-3.81,29.47-22,26.8-25.39,2.79C1118.92,1492.74,1117.14,1492.74,1132.5,1500.37ZM439.77,77.87C413.1,94.26,406.37,51.32,438,56.53ZM350.88,628.93l-22.61,2.8V609.88C345.67,605.18,349,604.67,350.88,628.93ZM1499,1006.6c7.49-17.92,5.08-14.49,19.68-18.81l4.83,12.71C1512.08,1029.84,1503.57,1011.17,1499,1006.6ZM513.93,1626.38c-5.33-17.53-7-34.68,13.46-26.17,3.94,7.5,8.13,7,0,18.68C523.33,1625.62,523.08,1622.7,513.93,1626.38Zm832.17-1222c-16.76,6.23-11.55,6.73-24.13-3.94C1327.05,373,1346.1,379.06,1346.1,404.34Zm-16.51,808.05c4.07-26.43,18.54-26.81,23,0C1339.12,1224.45,1342.55,1224.58,1329.59,1212.39Zm-773,1067.06a25.39,25.39,0,0,1-29.33,10.8c3.81-25.41,17.65-25.79,29.33-9.91Zm931.73-688.51c14.22,0,4.07-3.3,11.68,10.54-9.27,15.12-11.55,16.14-25.39,5.59,1.77-6.1.38-15.88,13.58-16ZM188.71,860.26c-15-20.46-4.19-34.68,16-19.57C200.14,857.59,202.42,855.55,188.71,860.26Zm845.63,1102.5c-12.7-18.8-1.65-33.41,15.11-21.34C1049.32,1964,1053,1955.9,1034.34,1962.76ZM1428,1644.16c4.06-18.54,11.81-30.61,27.94-20.32-5.72,13.47-11,22.36-27.43,19.82Zm-1094.53,275c4.44-22.11,8-19.06,25.4-12.71-5.08,15.76-6.61,25.92-24.89,12.2ZM90.54,483.86c-7.87,13.47-12.69,15.37-25.39,13.47V478.27C80.64,476.49,78.86,472.3,90.54,483.86Zm969.83,1743.76c-11.3-8-3.55-1.14-6.85-16.13,18.15-8.77,19-9,23.23,15.62C1071.42,2228.64,1068.25,2233.21,1060.37,2227.62Zm-127-1014c-4.19,10.29-2.66,18.67-12.7,20.07s-9.65-4.58-11.81-15.75c13.46-9.66,6.48-7.75,25-4.71ZM271.89,550.55c-11.05,12.71-21.34,16.52-21.21-11C262,532.26,270.36,534.8,271.89,550.55Zm859.6,545.09c8.63-16.64,8.63-14.1,22.86-7.11-4.32,11,2.54,14.61-9.4,17.91S1134.41,1100.85,1131.49,1095.64ZM886.65,576.59c-6.1,40.4-20.45,12.71-25.4-7.62C876.87,578.12,872.68,570,886.65,576.59ZM73.91,617.37c-12.7,12.07-4.7,8-19.68,3.94l-1.4-17.15c10.79-4.57,21.08-5.72,20.82,13.21Zm948.87,468.87c-14.85,8-13.84,9-25.39-2.79,4.06-9.66-2.67-11.56,11.81-11.69S1018.72,1075.07,1022.78,1086.24ZM848.3,493.52c4.32,17.65-7,27.82-15,17.91C822.65,498.22,832.81,486.27,848.3,493.52Zm680.54,727.63c-7.74-15.12,1.91-15.62,1.78-18l10-.76c8,15.5,8.26,10.42,0,25.41C1533.79,1226,1533,1229.54,1528.84,1221.15Zm-647.65-83.84c2.16-16.64-4.45-11,6.48-19s13.33,5,13.58,5.08c-4.31,19.81-2.28,18.8-20.19,13.72Zm616.28,514.35c-2.66,6.48,1.78,17.78-16.63,10.16-7.87-3.17-7.62-8.38-10.29-15.75a38.16,38.16,0,0,1,17.4,0c8.13,1.52,5.21,2.16,9.4,5.59ZM111.24,264.1c-15.74-2-11.93.89-22.85-7.12,3.93-15.24,1-11.68,12.7-17.27C110.48,250.76,107.69,242.25,111.24,264.1Zm310,798-2.92-1.91-5.59-3.55a25.38,25.38,0,0,1,30.73,0l-3.43,12.7C420.72,1076,441.93,1075.7,421.23,1062.11Zm92.7-44.34c-14,11.69-10.28,9.53-20.82-1.27,2.66-7.75,2.92-15.11,11.93-14.48C516,1002.66,512.15,1005.07,513.93,1017.77Zm736.55,802.46c-11.69,12.7-8.13,12.7-21.59,3.81,2-12.7-2.29-14.35,9.4-16s9.39,7.11,11.81,12.19Zm-113.4,54c6.6-18.55,9-18.17,21.84-5.59-5.08,6.86,8.38,6.86-8.89,12.7s-13.21-7.49-13.34-7.49ZM853.51,105.69c-9.28,16.89-7.24,14.74-20.83,6.86C830.77,91.34,851.09,89.68,853.51,105.69ZM1270.8,36.33c-7.62-16.26-8.64-9-14-23.5,10.66-11.81,1.27-8.51,20.44-7.62C1273.21,32.9,1273.84,7.75,1270.8,36.33ZM978.46,449.56c1,1.91,14.35-2-1.77,20.33-20.2-2.41-6.61,1.65-12.7-9.78C968.3,446.64,967.42,444.36,978.46,449.56ZM542.25,1210.61c-7.49,15.75,19.3,29.09-16.89,31.37C529.93,1207.18,526.76,1236,542.25,1210.61ZM1395.12,1579c2-22.36-4.19-18.17,18.29-16.9-2.16,20.45-2.29,27.06-18.29,17.28ZM922.33,611.78c-1.9,2.42,3.18,11.44-11,6.86s-9.53-5.84-12.7-18.29C909.64,601.24,921.19,601,922.33,611.78ZM865.44,1816.17c-12.06-17.54-8.12-20.08,8.13-25.41,7.62,18.16,6.86,18.55-7.49,25.41ZM593.56,667s4.19,4.07-23,6.86c1.4-16-2-19.56,8.64-20.45C587.71,653.19,584.28,658.78,593.56,667Zm335.25,654.59c-10,12.71-1,9.28-19.81,6.74.76-12.71-1.14-18.42,8.76-19.57,7.5-.63,8.51,6.1,11,13.21ZM333.86,2257.47c-8.89,10.67-12.7,18.67-25.4,11.18,2.29-8.89-10.16-7.62,9.78-14.74h10.29ZM185.79,365.85c-8.38,20.32-2.92,12.07-14.48,18.17L164,373C169.15,363.05,172.07,353.4,185.79,365.85ZM284.71,178c-4.06,8,0,9-9,11.05-19.56,4.32-11.69-4.19-13.34-5.46C269.47,168.44,276,164.25,284.71,178ZM624.92,775c22.73-22.61,19.81,8.51,20.07,9.78l-25.4-1.14c1.78-3.31-.64-3,5.33-9Zm-274-243.65c-4.07,35.32-15.24,22.61-19.43-3Zm613.87-269.3c-10.41,12.7-12.7,11.94-20.57-6.23C953.7,246.06,960.43,240.72,964.75,262.07ZM602.57,1895.18c3.81-20.33,0-9.78,11.94-19.31C627.08,1891.75,619.33,1907.63,602.57,1895.18ZM554.06,64c-3.55,20.58,0,21.09-15.87,15.88C534.63,63.26,537.3,56,554.06,64ZM121,34.68c-4.44,8.38,1.27,8.13-9.39,11.81-13.72,4.83-8.64-4.32-10.8-14,10.54-4.83,12.7-10,20.32,2.16ZM823.79,305.89c-8.76,16.26-11.56,17.66-18.67-3.56C811.22,295.48,820.11,284.42,823.79,305.89Zm339.83,1385c17.9-5.46,13.58,5.21,13.71,5.34-10.16,9.78-5.46,20.83-22.48,5.46C1159.43,1692.82,1153.58,1694.09,1163.62,1690.91Zm-920.94-1062-6.22,5c-8.13,1.27-2,1.65-11.43-.89C225.66,604.16,245.85,608.1,242.68,628.93ZM1459.89,75.71l-15.62,3.05C1443.76,40.78,1463.06,53.86,1459.89,75.71Zm-1099,353.78-12.7,3.43c-1.78-22-4.19-12.7,7.36-24.13C364.72,418.57,367.89,414.76,360.91,429.49Zm274.81,378.3c-12.7,9.78-9.15,9.4-20.7-1.4C622.26,787.47,629,787.47,635.72,807.79Zm-88.9,564.4c3.56-25.41-5.46-22.23,17.4-19-1.52,18.16-3.43,17.91-16.76,19ZM408,1662.84c-4.32,11.69-3.94,37.09-22.09,22.23a41.75,41.75,0,0,1,22.73-22.23Zm997.77,94.51c-3.18,5.33,2.41,9.53-10.54,10.29s-6.73-4.32-9.53-10.29c8.77-8.26-9.14-4.19,9.78-6.35,22.1-2.54,2.29-1.65,10.92,6.35ZM326.37,1175.17c10.28-11.56,1-9,19.81-6-2.54,15.37-.89,10.16-9.65,21.46ZM120.26,1451c7.11-9.27,5.72-10.92,18.8-12.7l2.66,16.38c-16.51,2.67-11.05,5.59-21.46-4.19Zm34.42-994.4c-14,9.91-14.23,2-15.5,1.4-3.3-18.68,12.83-33.28,15.5-1.91ZM1225,884.26c-6.85,6.86,10.92,5.72-12.7,6-14.09,0-1,.89-8.5-4.57C1211.87,866.73,1212.38,866.35,1225,884.26ZM1458.62,454l2.92,17.53C1431.31,473.7,1440.84,448.8,1458.62,454Zm-856.3,578c-5.46,30.74-12.7,24.26-17.65,2.16C595.46,1027.05,588.09,1027.68,602.32,1032ZM991,1918.68c6.22-16.39,2-20.2,18-5.59-5.08,7.11,9,6.86-8.26,11.43S996.24,1923.25,991,1918.68ZM1449.85,287.47c1.53-24.77-1.77-19.82,11.81-25.4C1471.57,281.88,1464.46,276.93,1449.85,287.47ZM716.23,1173.39c1.65-17.66-5.46-12.71,12.7-16.26,6.85,11.3,4.7,5.33,1.78,21.34Zm802.45,927.32c-11.3-23.37-1.27-23.24,12.7-17.78-6.22,14.48,5.21,13.08-12.19,18.17Zm-1236.51-261c5.85-14,5.08-14.87,20.7-11.44-6.22,10.93-1.14,28.08-20.7,11.82ZM378.18,617c-6,16.52-2,18.29-17.65,7.24,1.9-6.86-3.81-7.62,5.2-11.81,16-6.86,10.54,3.81,12.45,5ZM694.64,1061.6c10.92-12.7,1.14-8.64,12.7-7.37,3.81,6.23,3.17.89,3.17,11.94s-.76,4.32-4.57,10.55c-9.52-4.7-7.62-3.18-11.3-14.49Zm749.24-895.32c-3.93,10.17-1.9,22.23-19.81,5.47,6.23-13.85,6.23-15.76,19.69-4.83ZM188.58,1090.05c6.22-9.65,2.16-4.19,10.8-2.28,10.41,17.27-3.81,16.51-11.69,16C187.69,1103.65,177.66,1106.82,188.58,1090.05ZM920.81,237.93H905.32C904.43,205.41,922.33,216.08,920.81,237.93ZM849.31,74.69c-9.65,11.56-12.69,18.17-19.81-2.41C839,64.15,841.19,58.05,849.31,74.69ZM424.53,1688c-1.65,5.21,11.94,25.41-16.25,16.13,6.09-18.67-2-12.45,16.25-15.88Zm888.17,553c10.42-15.37-1-8,17.27-11.18-1.77,15.24,5,12.7-6.47,19-7.49,4.7-10.54-7.36-10.8-7.62Zm-623.39,22.23c7.74-11.94,1-9.4,16-9.4,0,13.59,8.89,10.79-4.19,17.78-7.37,4.07-11.81-8-11.81-8.13Zm376.4-1251.26c1.77-1.4-3.31-11.56,12.7-4.19,11.68,5.46,1.52-1.4,6,11.94-19.43,8.51-13.46,5-18.66-7.5Zm-496.41,560c9.65-12.7,11.18,0,12.7,2.16-5.33,16.52,3.17,6.74-10.41,13.85-1.27-2.16-13.47-.89-2.29-15.75Zm178.42,511.43c-2.16-19.31-1-26.42,15.11-14.73-6.6,11.56,5.72,14.35-15.11,15ZM95.88,378.43c-3.68,12.7,4.44,7.62-11.94,15.11-7.36-14.61-7-5.46,0-23ZM773.5,1695c1.78-24,10-21.6,18.92-9.91C784.8,1696,788.74,1695.1,773.5,1695ZM710,641.76c-1.53-4.57-3.81-1-1.91-11.56s-.76-.89,4.7-10.67c7.37,9.4,21.71,25-2.79,22.11Zm803.47-157.39c-4.32,21,0,15.62-14.35,13.34v-18.8C1508.9,481.19,1509.29,478.14,1513.48,484.37ZM281.92,1411.44c0-20.83-2.29-7.75,4.83-20.19,14.09,7.87,10.41,4.57,8.5,16.13C289.16,1411.32,305,1414.11,281.92,1411.44ZM685,37.35c-17.65-9-8,1.39-13.59-17.53C687.91,14.23,692,17.28,685,37.35Zm557.23,245.17c-4.7,17.27,2.67,5.46-8.76,15.88C1212.51,279.09,1233,274,1242.22,282.52Zm83.56,1135.78c14.1-.89,4.19-1.65,8.26,10.93a15.16,15.16,0,0,1-2.8,2c-7.62,2.92,4.07,6.61-17.39,0C1318.29,1423.64,1316,1418.81,1325.78,1418.3ZM850.84,1526.92c7.87.76,7.24,6.85,7.62,17.78h-14.1C843.73,1531.87,838.65,1525.64,850.84,1526.92Zm670.38-89.69c-2.66-17.28-6.35-16.13,14.23-17.4C1534.3,1436.6,1537,1437.23,1521.22,1437.23ZM264,1034.67l15.75.76c-1.9,16.13-3.3,18.55-13.33,17.4,0-1.27-1.53-2.92-1.65-3.68ZM699.08,566.56l16.51-6.35-2.79,23.88c-12.7-6.73-10-3.18-13.72-17.53L664.92,592c-12.06,9.65-20.82,25.4-38.09,13.59,3.93-23.63,3.3-14,19.17-26.3-1.52-26.42,2.8-21-9.39-32.14,20.57-12.7,23.49-26.42,30.47-53.73l26.67,34.55a26.52,26.52,0,0,0,12.7,9.66ZM144.52,599.33c0,.76,11,2.67,1.77,14.23s-10.16,0-13.58-2.29C136.64,599.21,136.13,597.43,144.52,599.33Zm1054,442.33c6.6-18.42,12.7-24.39,21.59,2.41ZM931.86,567.32c-9.78,19.31-10.16,11.56-17.27,8.13,1.52-6-1.65-8.64,4.82-12.07,18.16-9.78,9.4,2,12.19,3.94ZM191.88,892c-4.31-16.77-6.35-2.79,1.53-18.16,11.93,3.94,8.25-9.78,11.81,18Zm1203.37,498.35c-1.65,2.66,3.55,7.87-8.64,8.76-15,1-8-5.59-10.54-8.76C1393.34,1375.37,1392.2,1387.94,1395.25,1390.36ZM1347.12,1045c-17.91-2.16-6,3.81-15.24-7.24,3.43-11.18,2.79-11.56,14.86-12.71Zm167.24,136.94,17.4,2.67c-1.9,2.92,5,14.48-8.51,14.48C1514.49,1199.05,1516.78,1193.33,1514.36,1181.9ZM1251,1173.39c-3.94,12.7,1.27,15.88-17.53,8.38C1238.79,1165.13,1234,1160.81,1251,1173.39ZM785.31,784.8l4.83-16.13,10.79,2.54C808,787.59,794.58,787,785.31,784.8Zm236,1434.18c-3.68,10.54,6.1,6.35-7.49,10.29-17.27,5.08-3.56,0-9.4-4.7C1010.47,2210.34,1006.27,2205.13,1021.26,2219ZM828.36,844.88c9.4-18.54,10.8-16.26,17.27,0C829.38,863.3,832.81,849.46,828.36,844.88Zm197.85,951.47c-9.4,12.7-3.3,9.14-21.08,12.07C1010.47,1792.79,1010.34,1784,1026.21,1796.35Zm193.41-255.84c-5.59,15.62-2.67,12.7-16.89,8.25C1206.54,1532.89,1201.71,1524.88,1219.62,1540.51Zm-370,339.17c-10,13.72-9.65,19.06-18.16,0C843.47,1866.85,838.77,1867.1,849.57,1879.68Zm-202-197.41c-1-13.59,0-20.45,14.73-13.84C659.21,1674.14,669.75,1685.83,647.53,1682.27Zm-576-560.71c-10-17.4-9.78-12.7,3.68-22.23,3.43,5.59,8-8.89,2.79,15.88C76.58,1119.78,71.5,1120.92,71.5,1121.56ZM970,514.6c-5,16,0,18.93-16.51,8.9C957.26,513.71,951.92,503.55,970,514.6Zm35.81,335.87c5.08-5-6.23-3.81,8.38-5.59,17.4-2,2-1.14,8.63,5.59-8.89,22.74-12.31,11.31-17,.38Zm328.65-640.74c-15.24-7.24-15.11-2.16-4.45-20.07C1340.13,196,1345.34,193.21,1334.42,209.73ZM273.79,1150.9c9.53-14.73-2.54-9.78,13.59-8.13,8.25,18.42,0,12.71-3.17,18.93Zm383.9-688.51c-5.72,4.45,3,5.72-8.13,4.07s-3.3,0-8.64-5.08c5.72-11.94,13-24,16.77,1.27Zm528.28,213c-21.59,6.1-11.43,6.23-17.4-8.76,21.21-15.63,11,.38,17.4,9ZM663.27,383.25c-6.47,5.59,8.13,7-9,5.21s-2.29,0-8.38-5.21c1.14-2.16,0-9.9,8.5-9.52s7.75-.13,8.89,10ZM1197.4,2263.31c-17.78,16.39-12.7,4.83-16.51-8.13,12.95-4.7,10.92-6.6,16.51,8.26ZM1409,2279.19c-6.47,10.17,0,23-18,11.94,5-14.73-6.1-12.7,18-11.81ZM1369.6,1167.8c14.35-11.44,11.81-10.42,17.52,7.62-15.11,6-10.67,8.13-17.52-7.5ZM532.47,1548.89c4.07-11.94-3.68-7,7.75-12.7,14.86-6.73,4.82.76,9.14,3.81-8,19.31-2.28,14-16.89,8.76ZM374,144.69c-2.92,5.33,5.2,10.29-8.76,9.15s-7.62-5.85-10-9.15C361.67,141,360.65,135.29,374,144.69ZM861.51,22.23c-8.26,15.24-11,18.55-18.16,0,2.92-2.29-4.07-5.72,8.5-4.57C860.11,18.29,856.93,19.18,861.51,22.23Zm-62,1923.63c-12.69,2.67-1,1.78-7.62-5.59,12.7-23.24,15.5-5.71,16.77-5C804.36,1947.52,810.33,1943.58,799.53,1945.86ZM930,623.34c9.66-12.7-2.54-4.44,15.88-8.13-2.29,8.13,3.55,12.7-7.49,16.39s-7.12-7.24-8-8.77ZM613.87,939.52c-9.14,0-4.57-.89-9.65-4.7,9.78-20.2,10.8-14.1,17.78.64-5.84,4.32,3.68,2.92-7.75,3.56ZM1132.25,81.81c-4.7-7.5-5,5.21-3.81-9.66.89-11.81,0-4.06,4.06-10.92C1147.87,71,1144.82,74.44,1132.25,81.81ZM1436,1762.94c5.59-12.7-1.9-13.85,16.89-8.13C1447.57,1768.15,1453.54,1775.9,1436,1762.94ZM701.37,395.58c-3.81,12.7,6.35,5.58-6.48,11.68a5.39,5.39,0,0,1-2.38.43,5.59,5.59,0,0,1-5.24-4.37C683.08,389.86,696,387.57,701.37,395.58ZM820.11,2242.23c-14.23,9.27-7.24,6.22-17-.76C811.85,2220.63,814.52,2227.24,820.11,2242.23ZM1531.89,1852c-2.54,10,5.71,11.3-5.84,15.37-14.23,5.21-5.46-2.8-8.38-12.7Zm-649.3-72.41c5.33-11.69-1.53-14.35,16.63-7.75-5.08,13.09,1.27,20.71-16.13,7.75Zm357.22-665.14c5.84-7.36-2.29-3.68,7.37-6.09,17.14-4.19,1.9-1.15,9.14,3.94C1248.07,1131.85,1249.84,1129.94,1239.81,1114.44ZM563.46,1760.53c-5.72,10.79,11.81,14-12.7,16.38-2.29-23.75-6.73-11.81,12.83-16.38ZM783.79,329.39c-9,10.16-8.89,10.29-18.92,4.32,1.77-3.17-6.73-6.73,8.89-9.4C786.45,322.28,778.2,321.77,783.79,329.39ZM535,809.19c6.1-14.86,0-22.36,16.51-7.62C544.41,815.41,556,814,535,809.19ZM1265.21,445c11.17-12.7,0-5.21,16.38-6.73-3.81,12.7,9,6.22-6.86,14.35C1267.88,456.3,1271.18,453.25,1265.21,445ZM1004.12,940.41c-11.81,7.24-5.72,6.86-16.64-.76,8.25-21,11-13.47,17,1ZM821.63,1873.84c-11.17,21-12.7,6.22-19.68-1.91C820.74,1866,818,1871.3,821.63,1873.84ZM244,925.42c4.06-21-3.68-17.27,12.7-16.64-.13,22,9,10.67-12.7,17Zm692.48,231.33c8.64-18.42,8.76-16.14,15.87,0C944.3,1163.61,951.54,1170.59,936.43,1156.75Zm3.3-134c-11.94,3.81-1.65.76-7.36-5.59,7.74-12.7,1.65-11.31,16-6.86C944.3,1024.63,950.53,1019.3,939.73,1022.73ZM307.32,2063.24c-3.05,5.34,0,22.36-16.64,11.18C296.4,2058.79,285.22,2065,307.32,2063.24ZM1309,2180c18.54-19.05,14.86,0,16.26,2.29C1306.1,2195.73,1312.7,2184.43,1309,2180ZM228.33,1700.82c-1.4-8.76-6-24,12.7-15.75C232.27,1701.46,251.19,1690.91,228.33,1700.82Zm846.39,153.07,17.53,1.15C1087.42,1870,1085.14,1882.22,1074.72,1853.89ZM460.85,272.48c-7.11,17-4.57,20.07-16,0,5.71-5.33-3.68-5.21,7.49-4.57C461.61,269.05,455.77,268.54,460.85,272.48Zm881.32,1029c-4.2,10.42,6,6.23-8,10.29-16.25,4.83-4.06-.89-8.76-4.7,7.11-8.89,5.34-12.7,16.77-5.71ZM531.08,1873.07c-10.29-17.4-6.73-9,1.52-18.16,17.14,12.32,6.22,12.19-1.52,18ZM193.15,69.23c-1.27-3-9.39,4.83-2.66-11.3,4.82-11.18-3.05-1.15,8.38-7.24,6.09,21.46,5.33,10.16-5.72,17.91ZM967.8,973.82c-1.53,2.41-2.8,8-7.75,8.64-10.92,1.14-5.71-4.32-8-8.64,8.38-8.26,1.52-15.5,16.38-.63Zm-734.64,1229c7.11-12.71,0-12.71,16.38-7.75-5.46,6.22,3.05,21.72-15.75,7.11ZM774.77,531.12c-10.92,12.7-3.17,12.7-15.24,2.79C764.87,519.94,767.66,516.51,774.77,531.12Zm533.36,748c8.26-14.48,5.21-15.75,15.49,0C1308.13,1294.83,1314.61,1285.05,1308.13,1279.08ZM1079.55,706.29c-8.64,8.13,15,6.74-5.84,4.58-9.27-1-3.81,0-9.4-4.58,6-9.52-6.73-7.75,7-8.51,12.19-.63,7.5-2.41,8.77,8.51ZM773,700.2c-13.46-6.48-4.44,7.87-11.93-16.14h15ZM117.85,503c-15.24,5.72-9.78,7.12-15.75-7,16.76-15.37,8.26-1.91,16.26,7ZM1296.19,489.2l15.62-7.12c-2.79,12.71,9.66,7.12-6.22,14.87C1297,501.9,1296.19,489.2,1296.19,489.2Zm61.09,1179c19-20.7,14.73,0,16.89,2.67-6.35,2.67,2.54,3.18-8.77,2.16s-3.55-.38-8.12-4.57Zm105.91-599.33c0-11.18,0-3.56,4.57-10.16,12.7,15.62,8.89,9.4-1.65,21.72-1.27-2.67-3-1.14-2.92-11.31ZM503.26,468.74c-2-16.89-3.68-9.14,11.56-14C511.9,475.1,518.38,474.33,503.26,468.74ZM71.5,1589.67c2.54-15.75-6.1-10,12.69-15.25C81.4,1596.53,90.67,1588,71.5,1589.67Zm793.69,100.86c2.92,3.43,8.89,3.3,1.9,13.47s-9.27-1.15-12.7-3.94Zm153.28-88.92c2.54-5.34-2.16-11,8.25-8.77s1.27-2.66,6,11.31c-19.05,6-10.67.25-14.73-2.54ZM420.47,267c-6.86,18.8-4.32,13.72-15,4.06C412.59,260.54,406.24,257,420.47,267ZM982.91,874.74c11.56-4.07,1.14-1.27,7.11,5.08-7.62,10.29-2.16,10.29-15.62,7C979.1,872.83,972.5,878.29,982.91,874.74ZM469.74,655.23c-15.24-22.62-3.18-16.14,1.14-22.11C475.58,650.15,477,641.64,469.74,655.23Zm-421,1340.68c2.93-19.81,0-18.42,12.7-10.54C55.75,1992.74,75.31,1994.39,48.76,1995.91ZM14.48,731.57c0-24.26-6-8.13,7.11-17.66C33.4,723.44,21.72,728.27,14.48,731.57Zm919,199.95c.63-1.65,2.16,1.9,3.3,2.79-8.76,7.75-4.82,22-16.38,0,6.1-4.7,0-3.55,9.78-4.44C930.84,929.74,933,933,933.51,931.52ZM350.88,94.64c-5.85,14.61-3.43,22.86-13.59,0C348.21,86.76,338.18,84.73,350.88,94.64Zm1077.89,1165c9.4-25.4,14.35-4.19,15.37-2.79C1431.31,1268.15,1429.53,1259.9,1428.77,1259.64Zm-779.21-1026c-11.3,8.77-8,9.78-14.1-5.59,4.19-2.79-5.08-10.8,8.51-3.17S638.64,220.78,649.56,233.61ZM803.34,1725c3.56-16.39-4.57-12.71,10.93-14.87C814.52,1729.78,824.3,1721.4,803.34,1725ZM1449,1534.41c-2.54,4.19,4.2,10.42-8.38,7.88-9.78-2-.89,1.65-5.58-9.91,16.63-6.35,10.41.12,14,2.54ZM1497.09,2085c-16.5,14.87-15.36,1.27-16.76,0,6-5.71-7.87-3.3,8-5.08,18.16-1.4,1.53-.76,8.76,5.59ZM403.58,1701.58c-5.08,12.71,6.73,11.44-10.92,13.85-2.29-21.85-7.12-12.2,10.92-13.34Zm928.68,413.87c-4.57,10.42,1.78,8.26-7.49,10-11.56,2-5-3.18-7.49-7.12,9-7-2-7.11,15-2.41ZM452.47,2246.8c2-9.53-5.84-21.09,12.06-11.18C457.8,2242.86,477.87,2242.23,452.47,2246.8ZM1244.26,658.28c-17,4.82-8.77,4.7-15.24-9C1236.76,648.11,1247.3,647.48,1244.26,658.28ZM499.71,1155.86c-17.14,0-12.7,8.63-10.54-12.71C503.26,1144.42,496.92,1142.26,499.71,1155.86ZM115.94,133.51c-4.7,1.9,7.5,11.94-11.3.64-10-6-3.55,0-8.89-12,8.51,3.56,1.78,0,11,5C118.74,134.15,110.86,127.79,115.94,133.51ZM1501,105.69c-3.68,8.38,5.21,6-5.59,8.64-8.51,2-3.68,0-8.76-3C1493.79,96.8,1489.6,97.56,1501,105.69ZM714.45,2035.42c-12.7,10.54-5.71,8.89-14.86,0C717.63,2015.22,713.43,2034.15,714.45,2035.42Zm729.69-813c11.55,16.39,1.52,14.48-5.33,15-1.4-5-3-1.4,0-10.67,2.28-11.94-1.66-.76,5.33-4.57Zm-307.57,352.13c-9.4,10.93,1,17.28-16.64,11,8-16.64-3.81-9.52,16.64-11.3ZM842,545.6l-10.29,11.81-3.55-17.53c25.14.13,6.85.13,13.84,5.21ZM443.71,2202.72c14-11.94,8.5-7.11,16.25,1.14-17.52,13-12.83,1.4-16.25-1.65Zm1030.78-1096c8.76-18.93,4.83-18.93,12.7,0C1478.17,1113.56,1484.65,1114.19,1474.49,1106.7ZM602.83,737.16c6.35-20.58,5.46-24,15.49-6.86Zm315.82,779.59c4.83-16.26,5.08-14.35,15-8.51C924.49,1523.36,938.59,1516.37,918.65,1516.75Zm0-813c-4.57-6.22-9.27,4.2-3.81-8.25,3.81-8.52-5.08-3.82,11.43-5.85-3.94,15.5,5.46,6.23-7.75,14ZM733.12,510.28c0,2.55,12.7-5.2,0,8.77-6.61,7.24-2.29,2.29-9.65,4.7,3.17-15-1.78-14.74,9.52-13.59ZM52.83,1502.14c3.3-12.7,0-8.76,7.49-14.6,15.75,10.67,1.52,12.57-7.62,14.48ZM743.91,267c-1.9,1.14,1.91,12.7-13.46,0C748.86,247.84,743.79,266.89,743.91,267Zm138.3,1295.84c-4.45,8.13,11.68,8.52-10.93,13.85C871.54,1559.43,867,1566.8,882.21,1562.86Zm-588.48,61c-2.67,6.73,3.68,10.8-6.86,8.51s0,4.07-5.71-10.29C301.22,1616.22,288.65,1620.92,293.73,1623.84ZM141.34,556.78s1.65,13.84-6.6,0-1.15-6.61-.89-9.15c11.43,0,11.94-4.06,8,9.66Zm-1.78-288.36c0-.89-11.3,3.43,0-8.64,7.88-8.64,1.78-2.16,8.77-3.43-1.78,15,1.9,14.86-8.26,12.57Zm233.79,944c-8.89-6.48-9.39,10.92-10.79-13.34C377.67,1198,370.43,1194.47,373.35,1212.39Zm607.15-88.93c-4.45,3.56.89,15.63-14.1,0,15.62-15.49,10.67-2.79,14.1-.12Zm167.37-706.29-6.1,9.91-7.36-9.66C1145.71,405.1,1138.22,406.88,1147.87,417.17Zm-911.29,1532c7.88-1.53,2.29,0,6.73,4.7-6.09,6.22-5.46,9.4-14.47,3.68C233.28,1950.06,220.46,1952.47,236.58,1949.17Zm-32.51,251.52c12.7-6.86,1.91-3.05,8.51,3-9.14,10.29,0,8-12.7,5.71.77-.12-8.12-1.9,4.58-8.76ZM86.48,1322.52c8.64-12.7,6.6,0,6.73,0-2.16,8,6.35,7.37-9.52,11.56,1.52-9.27-3.43-1.52,3.17-11.56Zm159.76,290.27c-5.72,5.08,0,3.55-8.51,4.57-19.56,2.41,4.19,5.59-5.08-4.57,20.7-18.42,12.95-1,14,0ZM215,561.73c-9.4-3.56-6.1-.89-11.69-6.86C213,541.28,213,540,215.38,561.73ZM139.94,756.6c-3.17,9.4,4.7,0-4.44,15-6.86-5.59-6-2.54-6.1-12.71Zm-23.87,747.58c-5.21,11.3,5.33,5.46-9.78,12.7-.51-21.09-6.35-15.5,10.16-12.7ZM296.4,598.06c4.82-17.53-1.65-8.13,11.05-14.1C304.52,603.53,316.59,595.14,296.4,598.06Zm818.58,758c-1.78,2.67,0,23.63-9.4,12.7C1098.6,1359.61,1109.77,1358.6,1115,1356.06ZM713.18,381.22c-2.54-19.56-8.76-13.59,9.4-12.07C719.91,378.3,724.1,376.52,713.18,381.22ZM511.65,1366.35c-19,14.23-9.53,0-11.18-9C508.85,1361.52,507.07,1359.11,511.65,1366.35ZM71.5,1398.23c8.38,1.15,4.82-1.27,10.28,3.43-5.84,13.85,3,7.12-11,9ZM311,1601.48c-1-2.16-10.92,6.23,0-13.46,17,9.78,1.78,11.68.64,13.08ZM1338.74,984.62c-.89-1.78-11.69,5.46,0-14.74C1352.07,982.71,1340.39,981.57,1338.74,984.62ZM674.83,1422.37c10.16-15.25,6.35,0,7.24,1s6,3.69-8.38,9.15c-.38-9.15-1.15-7.11,1.14-10.42ZM648.67,1178.6c-10.41,6-6.22,8.76-12.7-5,13.46-7.62,4.06-9.4,12.7,4.7ZM1007.8,446.9c0-7.37-6.1-6.74,9.14-11.31C1016.31,452.48,1018.72,449.56,1007.8,446.9ZM386.31,1226.61c-13.46-20.83-1.53-11.43,0-14.22C395.07,1221.66,395.2,1214.29,386.31,1226.61ZM839.54,627.79c4.31-7.62,2.92-6.1,9.52-9.78C850.2,636,853.12,636.3,839.54,627.79Zm42.79,1135.15c-1.65-2.8-14,7.24,0-15.24,6.48,6.09,2.42-2.93,3.3,8.76C887.67,1781.74,889.06,1751.63,882.33,1762.94Zm172.33-789.75c-4.07,3,.89,13.46-13.72,0C1044.63,969.38,1044.12,963.79,1054.66,973.19ZM440.15,1328.87c0,14.61-5.46,8.39-7.49-.63s7.11-10.29,7.11.89ZM1037,871.56c2.54-12.07-1.4-9.4,9.52-12.07.13,15.12,5.46,9.66-9.14,11.82ZM218.81,525.91c2.15.76,10.66,2.54,4.95,9.65-1.53,1.78,0,8.13-5.21,0C207.76,518.41,217.54,530.1,218.81,525.91ZM658.45,828.62c-4.32,3.81.89,13.6-11.69,0C662.77,813.89,657.18,827.61,658.45,828.62ZM22,1406.62c16.13,13.59,0,12.7,0,12.7a34.18,34.18,0,0,0-2.16-3.18C13.84,1392,16.89,1415.13,22,1406.62ZM777.56,622.83c-8.63,6.86-8,5.59-14.6,0C773.37,612.29,773.25,618.64,777.56,622.83Zm408.15-44.71c0,7-10,12.07-7.24,0C1180.25,571.51,1186,561.6,1185.71,578.12ZM264.4,239c0,5.46-11.81,13.59-7.5,0,1.27-3.82,8.77-16.52,7.5.25ZM841.31,53c-8.63-4.57-7.49-.76-9.39-11.18C844.49,45.6,846.14,36.2,841.31,53ZM149.21,1777.55c14.1,7.24,3.31,6.73,0,12.7C133.21,1761.8,145.66,1784.15,149.21,1777.55Zm-32.89-1035c1.65,29.21-6.85,7.87-7.62,7.24C109.59,741.35,109.59,745,116.32,742.5ZM954,1209.21c-11.18-5.59,0,8.13-10.42-8.89,13.08-4.07,11.56-7.12,10.92,9ZM469.23,532.77c-1.9-3-10.92,3.81,0-13.59,4.32,6.48,11.56.63.51,13.72ZM1536.84,795.34c0,9-4.7,10.29-6.86-1.39S1536.72,784,1536.84,795.34Zm-560,633.89c-20.19,20.32-10.41.89-11.43-2.54ZM241.92,1167.16c-7.37,11.82,15.36,3.69-10.42,12.71C236.58,1165.89,229.47,1171.74,241.92,1167.16Zm798.39-474.08c-9.4-16.13-1.27-11.56,0-14.23C1042.21,682.67,1051,681.27,1040.31,693.08Zm117.08-309.32c-17,15-10.16,1-11.17,0C1159.81,373.35,1151.81,379.06,1157.39,383.76ZM145.41,1907.5c0,15.37-5.08,8.26-6.74,0S145.66,1896.45,145.41,1907.5Zm917.88,233.1c0,16.77-5.58,5.21-6.73,0S1063.55,2127.9,1063.29,2140.6ZM712.55,1122.83c0,14.73-5.47,4.83-7,0s6.6-12.07,7,.51Zm709.37-189c-5.59,6,2,3.55-7.75,4.82-20.7,2.67,4.7,5.85-5.21-4.82C1418.36,927.07,1408.71,924,1421.92,933.81Zm-671.4,1368c-6,6.35,1.65,3.68-7.75,5-18.29,2.54,4.06,5.72-4.83-5,13.34-9.91,4.32-5.72,12.58.5ZM264,1122.83c0,15.75-5.2,5.84-6.47,0s6.6-12.7,6.47.51ZM543.39,1412c19.56,3.43,5.46,0,7.75,11.94-12.19-5.08-4.83,5.34-8-11.43ZM264,416.66c0,6.61-9.77,12.7-6.6.64,1.52-6.23,7-14.74,6.35-.13Zm742,695.63c0,15.11-5.33,5.84-7,0C996.88,1103.27,1005.77,1104.28,1006,1112.29Zm-325.6-71.65c11.55,16.64,1.39,9,0,12.7C667.21,1027.43,677.24,1045,680.42,1040.64Zm764.23-295.35c0,14.23-5,7.62-6.61,0S1444.77,734.11,1444.65,745.29ZM135,989.32c9-12.7,4.19,0,5.72,1.65,0,.89,2.41,4.45-7.24,7.37C134,992.37,128.52,999,135,989.32ZM399,383.76c0,14.74-14.74,2-6.35-1.52S399.26,372.71,399,383.76Zm1128.43,365.6c12.7,8.76,1.66,9.65,0,12.7,0-1.14-1.9-2.54-2-3C1518.3,730.56,1521.86,759.27,1527.44,749.36ZM947.73,1801.81s-4.32,12.7-6.47-1.52C940,1790.89,947.73,1789.62,947.73,1801.81Zm-42.29-962-5.33,4.32c-19.81,6.73,2.67,3.94-5.08-4.32,18-13.59,10.67,0,10.67,0Zm46.86,1034c0,6.48-4.31,10.92-6.35,0C944.18,1864.56,952.56,1864.56,952.3,1873.84ZM507.84,1629.18l-12.7,7.62c5.33-16-3.81-14,13.08-7.24ZM330.05,672.5c0,10.67-8.51,6.48-7,0,0-.76,6.35-13.72,6.86.38ZM197.6,1028.19c0,11,.63,2.29-4.95,1.65-9.78-.38,4.95-18.8,4.82-1ZM456.66,661.83c0,9.53-8.38,9.78-6.22.89S457,651,456.66,661.83ZM691.47,859.11c4.95-5.84,2.53-3.43,10.41-7l-2.67,12.71ZM421,2274.49c-6.47,5.47-6,6-12.69,0C411.83,2271.32,412.21,2266,421,2274.49Zm635.85-472.68c-4.7,4.83,1.39,3.18-7.24,4.19l-5.08-4.19C1052.37,1796.35,1044.37,1791.77,1056.82,1801.81ZM495.26,639.6c-13.84,14.87-7.62,4.7-12.69,0,.88-.76,2.28-3.68,2.54-2.28Zm431.52,923.14c0,8.13-4.57,8.64-6.22,0C919.67,1557.4,927.67,1548.76,926.78,1562.74ZM542.25,381.48c-5,6.09-1.9,3.17-9.4,5.71-3.55-21.09-1.27-1.65,3.18-10.29ZM965.38,1712.89c0,9.27,0,2-5.08,1.52C951.54,1713.27,966.15,1696,965.38,1712.89Zm52.45-951c-5.84,4.7-5.33,6-11.81,0C1019.74,750.88,1015,759.65,1017.83,761.93Zm-65-372.58s8.26,13.85-10.54,0l5.59-3.68,2.54,1.14A18.91,18.91,0,0,0,952.81,389.35ZM741.12,1011.8c0,11.56-3.94,9.28-5.84,0s5.84-5.2,5.84.38Zm-462.88-5.59c-8.64,7.63,11.17,6.48-10.67,6.48,4.95-15.88-2.92-2.41,5.21-9.14ZM1000.94,862c0,14.61-4.7,5.34-6.09,0S1000.69,853.65,1000.94,862Zm476.22,456.05c-12.7,12.7-7.88,2.16-10.16,0C1470.68,1314.9,1466.11,1308.42,1477.16,1318.08ZM803,974.33c4.83-12.7,0-15.12,12.7-4.45L803,974.33c17.65,13.46,26.93,15.24,25.4,53.23-15.49,12.7,0,11.3-22.6,15.24-12.7,2.16-50.8-4.45-38.74-60.72A41.26,41.26,0,0,1,803,974.33ZM36.45,2127.9c2-14,0-14.23,6.47-9-10,19.44,11.56-14,.64,5.46C38.22,2134.12,42.8,2126,36.45,2127.9ZM1158.16,339.3c-2.42,2.67,9.65,16.64-10.16,0,.89,0,2.41-3.68,2.79-2.29s2.29-.89,2.67-.89ZM13.84,1227.63l-5.08,13.59c-4.57-9.53-4.82,5.21-2-9.91C8,1221.28,8,1230,13.84,1227.63ZM805.76,604.16c-6.23,5.84-1.65,2.54-9,4.7-4.83-20.07-1.14-1.52,2.41-9.78ZM680.42,1212.39c0,11.68-6.23,1.77-6.48,0C672.42,1205.14,681.05,1202.48,680.42,1212.39Zm135.12-23.5c3.3,7,6.22-2.93,1.52,7.74s-4.95,0-7-2.28ZM472.66,795.09c0,11.43,5.71,2.16-4.7,1.65s5-17.4,5.08-1.4Zm-51.3-617.37c0,15.88-13.85-1-4.7-1.65,7.11-.39,4.7-9.53,4.7,1.9Zm170.8,167.17c0,5.34-7.75,10.8-5.59,0C588,336.76,592.16,333.71,592.16,344.89ZM188.84,1363.17c-9.15,11.82,4.19,7.62-11.69,12.7,9.4-16.89-2.16-7.36,11.69-13.33ZM675.08,967.72c0,2.54-3.43,9.79-5.46-1.27S675,959.21,675.08,967.72ZM527,183.56c0,10-9.27,11.18-7.11,0,2.92-14.74-9.27,0,2.16-1.91C527.39,181.15,527,172.38,527,183.56ZM285.73,228c0,5.46-10.54,15.88-7.11,0,3.17-13.59-9.78,0,2.16-1.78,5-.51,4.7-9.53,4.57,1.78Zm731.59,1173.39c0,1.27-3.68,10.67-5.58-.76S1017.45,1393.66,1017.32,1401.41ZM104.89,878.67c0,16.52-4.31,4.07-5.08.64S104.89,870.29,104.89,878.67ZM620,524.51c-12.7-5.08-5.72,3.94-8.38-11.18,1.39,0,0-4.44,4.7,3C616.79,517.14,618.7,523.62,620,524.51Zm137.28,1377.4c0,7,1.39,2-4.45,1.65h-1.27C746.45,1900.64,758.26,1888.19,757.25,1901.91ZM1156.38,775.4l-10.92,3.17C1147.74,771.71,1144.57,765.24,1156.38,775.4ZM481.55,589.55c0,8.64-6.6,11.56-5.08,1.4S481.55,588.54,481.55,589.55ZM762.71,584c0,2.67-7.11,7.62-5-.76C758.64,579.77,763,565.42,762.71,584Zm361-294.71c0,6.1-9.9,12.7-7,0s-10.67,0,2.16-1.65C1124.25,287,1123.74,277.82,1123.74,289.25Zm145,673.27c0,10.67,0,2.15-5,1.52-14.09-1.52,0,11.05-2.16-1.52s7.11-7.12,7.11-.39Zm-427.45,861.9c0,8.51,2.67,2.16-4.19,1.65h-1.27c-5.84-3,5.72-15.75,5.46-2Zm-797.37-595c0,11.68,0,2.28-4.83,1.78-12.7-1.27.77,11.18-2-1.66s6.86-6.85,6.86-.5ZM417,706.29c0,12.71-9.65-.76-5.72-2C421.48,701.09,416.66,697,417,706.29Zm-391.9,39c0,8.51-3.42,8.77-5.08,0S25.4,738.18,25.14,745.29Zm141.73-88.92c0,5.08-9.91,14-6.86,0s-11.56-1,2-1.65c6.73-.38,4.83-11.81,4.83,1.52Zm152.26-27.44c0,14.48-13.34-1.52-3.81-1.78S319.51,617.24,319.13,628.93Zm137,605.69c0,9.27-.89,1.9-4.7,1.39-10.54-1.39,1,12.71-1.9-1.52S456.15,1228.39,456.15,1234.62Zm495.27,889.21c0,11.56,3.42,2.16-4.2,1.91h-1.39c-4.7-2.16,6.22-13.85,6.09-1.4ZM28.19,1754.55l2-12.7c11.05,11.94,3.18,8.13-1.52,13.21ZM86.61,172.38c0,7.24-7.11,11.69-5.08,1.14S86.61,171.62,86.61,172.38ZM258.43,1724.07c0,7.75-1.78,1.78-4.58,1.14-9.39-2,1.78,19.06-1.9-1.78C249.28,1709.33,258.43,1716.83,258.43,1724.07Zm650.32,266.76c-6.1,6.35,1.39,3.69-8,5-19.81,2.66,4.06,5.71-5.08-5ZM1515.51,917.67c-19,13.6-10.16,0-10.16,0Zm23.87,83.34c0,8.51,2.16,2-4.32,1.52h-1.27v-1C1531.89,989.83,1539.76,997.32,1539.38,1001ZM702.89,984.62c-19.81,12.7-10.15,0-10.28,0Zm798.27-266.77c0,11.31,1,2.16-4.7,1.66-15.11-1.53,0,10.41-2-1.53C1492.4,707.56,1501.28,709.22,1501.16,717.85Zm-224.9-72.28-10.92,2.67c12.57-15.88,6.09-7.75,10.92-3ZM450.82,562.11l-6.86,2s-1.78-1.4-2.67-2c5.21-3.55-8.12-11.81,9.4-.38Zm737.31,394.43c0,6.36-1.53,1.66-4.32,1.28-13.84-1.91.89,11.94-1.78-1.4S1188.25,951.84,1188.13,956.54ZM928.56,900.4c0,5.46-1.53,1.52-4.07,1.27-11.55-1.65,1.4,12.7-1.65-1.4s5.84-3.43,5.84.64Zm355.57,111.28c0,7.49.76,1.9-4.06,1.39-14.86-1.65,1,11.18-1.65-1.39s6.09-3,6.09.5Zm26.16,17.15c0,6.73,1.14,1.9-3.56,1.39-10-1.14,1.53,12.71-1.52-1.27s5.33-2.92,5.33-.12ZM700,283.66c0,2.79-7.74,14.23-5,0s-8,0,1.52-1.27c4.32-.51,3.69-4.7,3.69,1.27Zm438.25-11.18h-9.65C1134,267.65,1132.76,269.05,1138.22,272.48Zm411.19,656.24c-.88.77-2,2.42-2.41,2.67l-2.28-5.84C1563,921.1,1541.67,921.86,1549.41,928.72ZM886.65,2074.42c.76-15-4.7-5.34-6.22,1.27C877.38,2089.79,886.27,2082,886.65,2074.42Z"/>
</svg>