<svg width="1575" height="2314" viewBox="0 0 1575 2314" fill="none" xmlns="http://www.w3.org/2000/svg">
<path opacity="0.01" fill-rule="evenodd" clip-rule="evenodd" d="M882.586 2089.79C874.077 2088.52 860.489 2098.3 843.727 2091.31C823.789 2083.06 806.772 2022.59 882.967 2040.5C912.174 2047.11 888.935 2038.98 904.936 2051.68C927.921 2069.97 921.572 2056 923.096 2101.73C941.128 2091.82 918.397 2098.05 939.351 2086.61C933.001 2102.87 927.667 2157.5 956.875 2137.43C963.86 2161.56 954.843 2114.56 956.875 2143.65L962.971 2162.83C966.141 2177.44 966.657 2192.5 964.495 2207.29C939.859 2212.63 939.731 2225.46 917.889 2199.16C907.476 2208.06 888.935 2235.24 882.967 2192.81C891.094 2178.2 892.237 2184.81 906.079 2176.17C892.618 2155.85 882.459 2171.34 872.807 2143.78C863.156 2116.21 876.744 2110.62 883.094 2090.81L882.586 2089.79ZM1420.65 96.4167L1404.9 110.517L1416.71 135.923C1391.31 188.387 1387.75 151.167 1356.26 151.548C1351.29 159.048 1347.04 167.002 1343.56 175.303C1256.32 162.6 1287.05 94.3842 1321.34 86.3812C1353.47 79.1404 1330.1 65.167 1358.42 56.4019C1380.26 49.6692 1375.31 56.4019 1381.66 61.8642C1397.03 75.8376 1393.85 95.4004 1420.65 96.4167ZM825.186 1286.06C842.33 1315.28 850.584 1367.11 794.454 1374.99C786.581 1366.35 766.77 1348.18 765.246 1336.88C765.043 1335.47 764.522 1334.12 763.722 1332.94C761.436 1344.12 768.929 1341.2 740.61 1351.36C732.991 1331.03 720.545 1332.05 726.26 1303.98C737.308 1249.22 777.056 1289.49 777.056 1289.49C781.462 1293.11 786.643 1295.65 792.194 1296.93C797.745 1298.21 803.517 1298.18 809.058 1296.86C817.312 1294.07 813.63 1291.78 825.186 1286.06ZM615.905 671.487C616.877 671.415 617.854 671.415 618.826 671.487C648.034 666.279 621.874 664.754 662.384 645.318L672.035 640.491C691.719 631.599 705.053 632.107 712.291 662.341C711.402 663.611 716.863 681.903 681.94 685.841L700.735 725.348C678.258 728.397 698.195 732.843 672.67 753.168L662.511 758.122C647.78 759.011 637.113 737.289 623.398 730.048C630.255 708.961 639.271 714.169 633.811 693.59C626.572 666.406 616.286 684.19 613.238 674.79C613.238 673.011 610.952 674.79 609.937 673.392L615.905 671.487ZM1430.3 1992.87C1463.31 1971.02 1446.68 1951.58 1496.08 1970.76C1494.81 1971.4 1494.43 1975.21 1494.55 1976.48L1498.87 1986.51C1504.61 1993.13 1508.23 2001.32 1509.29 2010.01C1505.5 2012.62 1501.14 2014.27 1496.59 2014.84C1488.84 2017.64 1497.6 2014.08 1491.63 2016.49L1489.22 2017.64C1488.31 2018.05 1487.42 2018.52 1486.55 2019.03C1480.01 2022.56 1473.65 2026.42 1467.51 2030.59C1447.19 2045.96 1429.41 2054.22 1418.49 2025C1405.79 2031.61 1381.41 2037.71 1369.85 2029.07C1373.4 2014.21 1373.15 2024.62 1380.26 2005.95C1394.1 1972.03 1385.72 1967.2 1430.3 1992.87ZM1059.48 1269.93C1064.29 1268.33 1069.4 1267.82 1074.42 1268.43C1079.45 1269.05 1084.28 1270.77 1088.56 1273.49V1287.33C1088.56 1302.96 1087.55 1307.02 1099.74 1319.98C1078.66 1331.92 1085.9 1332.68 1083.61 1334.72C1077.78 1338.46 1071.33 1341.13 1064.56 1342.59C1058.59 1342.59 1019.1 1342.59 1015.93 1341.96C1009.58 1315.41 1008.18 1330.52 1035.86 1286.06C1045.77 1271.58 1040.31 1274.89 1060.12 1269.93H1059.48ZM1427.76 2207.8C1403.12 2219.49 1399.57 2259.76 1365.02 2264.08C1341.28 2225.97 1348.39 2217.08 1363.5 2179.35H1404.9C1404.9 2180.49 1406.17 2182.27 1406.68 2183.03L1408.45 2186.46C1408.45 2187.35 1409.72 2188.87 1410.36 2189.76L1427.76 2207.8ZM1754.5 540.01C1743.46 508.252 1759.08 524.639 1740.41 509.776C1727.71 500.249 1720.6 512.444 1720.6 484.37C1720.6 446.261 1754.12 478.4 1771.39 480.178C1814.44 484.751 1806.32 518.287 1797.93 530.99C1785.87 548.013 1771.39 543.567 1754.5 540.01ZM1499.38 1852.37C1500.14 1876.76 1491.13 1905.72 1479.32 1913.85C1467.51 1921.98 1452.01 1903.05 1439.69 1894.03C1437.3 1879.73 1438.75 1865.04 1443.88 1851.48C1456.71 1823.02 1481.09 1837.25 1499.38 1851.86V1852.37ZM1415.18 2280.34C1413.28 2261.28 1412.39 2278.81 1408.96 2252.9C1414.04 2231.94 1420.9 2229.14 1435.38 2219.23C1457.98 2225.97 1446.55 2230.67 1465.35 2236.38C1461.54 2242.74 1457.73 2249.09 1452.65 2256.71C1459.12 2277.54 1460.52 2269.41 1465.35 2285.67C1460.81 2287.34 1456.53 2289.65 1452.65 2292.53L1450.11 2294.82C1413.91 2326.45 1417.6 2301.04 1415.18 2280.34ZM-0.00012207 904.335V791.15L12.699 787.085C24.1282 810.713 25.3982 802.456 29.4619 806.394C25.6521 820.749 24.8903 810.332 29.4619 823.67L36.9543 836.373C36.9543 835.484 38.4783 838.533 38.9862 839.803C16.5088 882.867 30.2239 869.529 29.7159 890.616C29.9698 916.276 12.572 912.719 -0.00012207 904.335ZM850.838 176.192L851.6 211.38C832.551 230.435 845.631 236.786 828.996 249.489C810.836 237.675 833.567 253.046 809.439 219.51C804.314 214.556 800.68 208.263 798.952 201.347C797.223 194.431 797.469 187.168 799.661 180.384C809.185 143.164 835.98 160.44 851.473 176.192H850.838ZM548.854 522.352L558.251 512.952C569.427 500.249 558.886 502.154 570.95 501.265C594.825 499.487 575.776 499.487 583.65 508.76C591.269 522.479 579.84 524.004 572.474 530.609L569.934 533.023C554.442 547.885 548.6 563.891 521.043 551.951L500.725 539.247C507.074 513.841 513.424 499.36 528.281 491.23C537.806 498.47 531.456 490.34 538.568 501.011L548.854 522.352ZM151.246 1546.48C147.563 1530.22 144.007 1500.24 149.468 1486.01C169.152 1481.95 186.042 1498.71 191.375 1519.55C200.518 1555.62 215.503 1559.31 201.534 1573.79C176.136 1586.49 186.295 1554.1 177.66 1537.59C174.348 1540.97 170.295 1543.53 165.82 1545.08C161.346 1546.62 156.573 1547.1 151.881 1546.48H151.246ZM1641.23 0H1700.53L1706.12 6.0975C1713.36 16.387 1707.77 4.31906 1712.85 16.387C1723.14 40.3959 1709.04 59.9587 1689.61 50.8125C1638.18 26.5495 1653.42 33.2822 1641.23 0ZM1176.32 2089.79C1166.79 2134.51 1145.84 2140.6 1119.93 2113.04V2084.33C1150.92 2051.68 1151.81 2062.99 1176.32 2089.79ZM833.44 2186.71C844.234 2177.57 843.473 2168.04 858.838 2175.28C870.649 2180.87 866.966 2192.94 865.061 2203.23C830.774 2218.85 855.156 2185.32 823.789 2205.64C804.232 2218.35 799.788 2221.01 781.755 2206.4V2181C803.597 2160.8 813.63 2174.52 833.44 2186.71ZM227.948 130.207C221.091 147.737 225.663 164.251 201.153 166.792C176.644 169.333 175.755 151.675 175.755 126.777C207.503 89.9381 217.535 108.104 227.948 130.207ZM480.787 1509.38C473.929 1501.51 477.612 1508.62 476.342 1498.84C492.089 1480.17 482.184 1494.78 499.582 1493.38C512.281 1492.24 519.138 1482.33 528.027 1494.39C537.933 1522.6 527.139 1529.07 506.312 1532.5C487.645 1535.68 504.661 1532.5 488.914 1541.9C480.706 1545.73 472.215 1548.92 463.516 1551.43C468.215 1529.33 470.501 1520.31 491.454 1518.15L480.787 1509.38ZM476.342 744.784C464.405 743.514 472.786 748.087 460.722 741.354C462.5 715.948 455.135 726.11 472.406 720.394C495.518 712.899 496.407 683.936 527.52 711.883L526.377 739.703C503.264 755.963 494.375 746.816 476.342 744.784ZM294.491 1478.77C310.619 1484.23 309.603 1474.71 333.605 1472.93C337.829 1478.74 343.468 1483.37 349.986 1486.39C343.637 1517.26 358.495 1504.3 342.875 1518.66L337.16 1522.6C302.111 1545.59 299.063 1504.3 294.491 1478.77C287.634 1481.31 252.331 1508.24 218.297 1497.19C207.884 1471.78 215.757 1463.65 204.074 1448.92C189.343 1430.5 218.17 1466.83 199.502 1444.34C192.53 1435.59 188.393 1424.92 187.644 1413.75C186.896 1402.58 189.57 1391.45 195.312 1381.85C214.233 1346.15 224.774 1359.11 231.885 1358.34C238.997 1357.58 249.537 1340.94 260.204 1371.05C265.538 1386.29 259.188 1388.7 261.093 1409.16C281.665 1425.8 269.728 1423.13 297.92 1418.18C297.158 1420.72 293.095 1431.51 292.968 1431.9C291.755 1435.49 291.407 1439.32 291.952 1443.07C291.698 1449.43 294.365 1467.34 294.491 1478.77ZM1103.42 1427.96C1107.36 1386.42 1161.08 1395.82 1162.98 1419.19C1165.14 1446.12 1120.82 1457.05 1103.42 1427.58V1427.96ZM956.875 2055.36C931.477 2045.2 956.875 2042.66 932.366 2037.58C915.095 2034.28 922.207 2044.44 909.254 2025.77C916.238 1980.54 939.986 2001.76 956.494 2014.97C960.939 2018.65 967.162 2012.94 969.193 2045.71C965.673 2049.51 961.501 2052.65 956.875 2054.98V2055.36ZM1155.23 2257.09C1129.84 2257.09 1107.61 2234.99 1129.84 2210.6C1152.06 2186.21 1166.16 2224.44 1173.39 2236.89C1156 2247.44 1170.98 2240.07 1155.23 2256.71V2257.09ZM1066.34 770.825C1049.96 760.79 1064.31 774.382 1053.64 752.279C1039.93 754.692 1031.29 756.979 1019.86 749.357C1017.45 725.983 1017.07 738.559 1023.29 723.951L1031.67 707.564L1033.96 710.104L1036.37 712.518L1045.64 722.553C1089.45 774.509 1052.63 721.791 1082.98 745.927C1078.66 764.22 1081.2 763.585 1066.6 770.444L1066.34 770.825ZM939.351 1073.16C930.461 1036.45 970.844 1028.32 974.527 1085.86C976.178 1112.29 965.384 1108.73 946.843 1106.44L939.351 1073.16ZM1224.95 1074.56C1222.92 1052.58 1224.95 1039.88 1239.3 1036.45C1256.7 1031.37 1255.43 1042.42 1274.61 1044.07C1261.15 1062.49 1263.68 1104.79 1224.7 1074.18L1224.95 1074.56ZM1789.93 605.177C1765.93 625.502 1741.55 606.828 1752.98 575.705C1760.47 556.524 1800.86 546.615 1789.93 605.177ZM109.593 412.216C102.735 426.19 103.116 424.157 112.895 437.622C104.386 447.404 98.2908 453.501 90.2904 464.299C75.4325 430.255 68.1941 467.983 65.7812 416.789C94.2272 390.875 80.8931 407.897 109.593 412.216ZM698.703 170.857C681.305 161.584 677.623 160.186 675.972 132.748C687.02 120.044 702.259 101.117 715.847 129.318C726.006 149.643 710.64 163.108 698.576 170.476L698.703 170.857ZM162.548 177.336C140.071 177.336 143.627 171.111 136.388 144.18C129.15 117.25 140.833 116.488 163.437 115.344C167.774 125.065 169.93 135.618 169.755 146.262C169.579 156.906 167.076 167.382 162.421 176.954L162.548 177.336ZM576.538 552.713C593.936 541.407 601.936 549.664 621.239 547.759C619.08 614.958 573.236 600.985 576.538 552.713ZM1329.97 1122.7C1323.12 1124.65 1315.89 1124.84 1308.95 1123.26C1302.01 1121.69 1295.57 1118.39 1290.23 1113.68L1290.61 1090.18C1308.13 1074.81 1316.01 1076.08 1330.74 1090.18C1330.23 1097.42 1336.58 1106.7 1329.97 1122.7ZM1574.69 1825.82C1577.99 1812.1 1590.05 1813.12 1602.88 1813.12C1604.02 1816.67 1618.5 1882.09 1578.24 1865.83C1575.96 1852.62 1574.78 1839.23 1574.69 1825.82ZM1602.12 70.6293C1617.14 62.613 1633.57 57.5669 1650.5 55.7667C1650.5 87.5245 1654.69 70.7564 1631.2 92.4787C1610.88 111.406 1602.62 99.8465 1602.12 70.6293ZM900.237 175.811C900.237 196.644 900.237 207.188 885.507 210.491C882.724 211.035 879.859 210.995 877.093 210.372C874.327 209.749 871.721 208.557 869.44 206.873C867.159 205.189 865.253 203.048 863.843 200.587C862.433 198.127 861.551 195.4 861.251 192.579C852.997 153.327 887.919 165.014 900.237 175.811ZM735.149 759.138C720.037 746.435 724.101 753.168 712.291 732.843C724.99 710.613 716.99 721.791 733.118 705.658L757.246 722.68C751.277 744.784 756.611 735.384 743.023 753.803C741.111 756.291 739.33 758.877 737.689 761.552C737.071 760.699 736.392 759.893 735.657 759.138H735.149ZM621.747 68.2158L623.144 94.3842C599.269 113.439 579.84 108.104 586.951 64.2778C601.682 57.2911 609.937 54.2423 622.255 68.2158H621.747ZM759.405 2163.47C776.167 2196.5 756.738 2220.25 736.927 2202.97C721.18 2189.38 724.863 2151.53 759.405 2163.47ZM888.808 1190.16C883.856 1202.86 878.268 1218.61 863.41 1209.85C855.296 1201.73 849.583 1191.53 846.901 1180.37C843.98 1163.99 855.283 1163.1 865.188 1167.67C870.456 1169.6 875.272 1172.59 879.336 1176.46C883.399 1180.32 886.623 1184.99 888.808 1190.16ZM52.7012 528.323C44.5739 555.761 51.0502 563.002 30.7317 572.53C29.9697 571.64 28.7 569.1 28.319 569.989C27.938 570.878 26.4141 567.956 26.0331 567.321C7.11145 540.01 12.3181 506.6 52.7012 528.323ZM1582.69 1163.35C1569.99 1136.8 1568.46 1146.33 1579.26 1116.48C1633.48 1124.35 1585.1 1131.85 1620.78 1149.76C1590.05 1151.16 1613.42 1159.29 1582.69 1163.35ZM1080.56 1440.79C1078.96 1443 1076.91 1444.84 1074.54 1446.19C1072.17 1447.54 1069.53 1448.37 1066.82 1448.62C1064.1 1448.87 1061.36 1448.54 1058.78 1447.65C1056.21 1446.76 1053.85 1445.33 1051.86 1443.46C1040.56 1433.93 1045.9 1422.11 1048.44 1410.81C1074.09 1400.14 1095.04 1419.95 1080.18 1440.79H1080.56ZM592.158 618.896C579.459 628.423 589.618 623.215 573.998 622.834L572.728 653.703C544.409 648.113 562.569 653.703 545.044 639.348C553.68 624.231 551.394 618.515 571.458 620.166L570.696 594.76C592.158 596.666 587.967 587.011 592.158 618.896ZM86.7346 2028.94C103.624 2002.14 96.132 1996.93 121.657 2004.55C129.023 2031.61 119.117 2025.13 105.91 2036.31C92.7034 2047.49 98.6718 2060.19 78.3531 2047.11C82.4169 2022.84 78.3531 2041.26 86.4806 2028.43L86.7346 2028.94ZM1601.73 1234.62C1592.84 1244.78 1564.4 1265.1 1569.35 1232.46C1573.42 1206.29 1585.35 1205.27 1602.12 1195.49L1601.73 1234.62ZM1509.29 1332.43C1521.98 1327.6 1520.97 1312.49 1535.45 1334.72C1527.95 1354.41 1535.45 1337.64 1522.75 1350.72C1513.09 1361.39 1517.41 1363.43 1508.4 1367.36C1493.79 1373.72 1470.04 1347.29 1509.29 1332.43ZM1106.22 738.559C1093.52 729.032 1094.15 737.416 1089.07 717.472C1112.18 683.428 1112.44 729.286 1112.44 729.286C1115.49 749.357 1116.63 734.621 1120.57 748.976C1130.6 785.18 1068.63 766.76 1106.22 738.559ZM1540.65 16.0059C1542.94 64.2778 1512.59 55.0045 1507.13 36.3309C1497.73 4.70016 1531.89 4.57313 1540.65 16.0059ZM566.76 1478.39C565.236 1491.09 556.473 1495.67 546.822 1510.15C541.805 1502.8 538.387 1494.48 536.79 1485.73C535.193 1476.97 535.453 1467.98 537.552 1459.33C551.902 1454.63 569.427 1453.62 566.76 1478.39ZM1234.22 182.671C1224.57 147.864 1248.32 137.321 1259.62 150.278C1271.69 165.649 1269.4 200.836 1233.72 183.179L1234.22 182.671ZM1475.51 1289.75L1509.92 1264.09C1515.76 1279.71 1519.95 1256.47 1514.75 1296.23C1496.71 1309.95 1478.93 1322.78 1475.51 1290.26V1289.75ZM741.245 1778.06C711.783 1798.38 692.354 1793.43 710.64 1751.63L732.864 1749.35L741.245 1778.06ZM504.788 1585.35L496.026 1568.2C480.406 1579.38 482.184 1571.88 477.104 1568.2C484.597 1547.62 477.104 1561.21 494.756 1550.29C533.869 1526.53 530.694 1553.21 504.788 1585.86V1585.35ZM465.167 1467.34C453.357 1446.63 452.468 1439.9 469.485 1423.64C486.375 1427.7 484.978 1427.58 490.819 1446.12C485.359 1467.34 484.724 1467.34 465.167 1467.34ZM1673.1 2313.62H1638.05C1637.16 2292.66 1639.96 2278.18 1658.37 2280.84C1674.88 2282.88 1676.28 2296.98 1673.36 2313.49L1673.1 2313.62ZM1604.53 1671.86C1591.83 1680.88 1598.43 1682.27 1582.81 1676.18C1577.1 1658.77 1578.5 1610.76 1593.73 1627.9C1606.43 1641.62 1590.94 1627.9 1597.29 1642.77C1604.78 1659.54 1608.08 1645.82 1604.78 1671.73L1604.53 1671.86ZM1826 897.856C1826 896.332 1824.98 894.427 1824.73 893.283L1815.84 863.812C1812.41 856.571 1806.44 842.344 1803.14 834.214C1807.7 828.568 1811.94 822.673 1815.84 816.557C1821.81 805.505 1816.6 808.427 1825.24 795.85L1826 897.856ZM414.752 1482.2C399.767 1497.7 366.241 1486.65 393.925 1446.25L408.783 1456.67C409.606 1457.59 410.37 1458.57 411.069 1459.59C420.72 1473.69 417.165 1465.81 414.371 1482.07L414.752 1482.2ZM348.208 1672.75C348.208 1634.64 355.447 1673.89 352.145 1649.25C352.145 1646.32 349.224 1651.28 348.208 1635.65C346.812 1613.3 346.812 1635.65 351.13 1623.71C363.194 1642.39 351.13 1632.48 364.844 1640.73C378.559 1648.99 368.019 1631.84 381.607 1652.29C374.496 1676.3 367.257 1668.94 348.208 1672.11V1672.75ZM60.4476 473.445C47.7485 483.862 58.1617 480.178 42.2878 476.367C35.2765 474.801 28.4617 472.457 21.9695 469.38C22.7314 443.974 21.9694 446.515 39.748 441.56C48.4694 450.648 55.4814 461.234 60.4476 472.81V473.445ZM905.063 766.379C899.983 722.045 927.541 725.475 940.875 763.076C925.382 766.506 922.334 771.715 905.063 766.379ZM554.95 120.807L556.854 146.213C526.885 173.779 517.741 116.488 539.965 116.488C545.204 116.878 550.306 118.349 554.95 120.807ZM213.218 1826.84C211.059 1799.4 223.123 1790.38 242.806 1800.29C242.806 1800.29 260.077 1807.02 237.219 1824.68C233.655 1826.87 229.621 1828.19 225.448 1828.52C221.275 1828.85 217.083 1828.19 213.218 1826.58V1826.84ZM1264.07 240.216C1259.49 243.392 1253.14 250.76 1244.64 246.822C1240.45 244.855 1237.12 241.453 1235.23 237.234C1233.34 233.015 1233.03 228.259 1234.35 223.829C1238.16 204.647 1262.92 199.82 1264.07 240.216ZM1259.88 1662.97C1251.49 1688.37 1262.29 1671.86 1259.11 1702.09L1233.72 1706.28C1232.7 1690.15 1232.19 1702.47 1235.49 1688.5C1244.51 1651.91 1241.08 1662.2 1259.88 1662.84V1662.97ZM1566.3 0H1607.19L1605.54 38.1094L1600.72 13.5923C1593.86 25.5333 1595.13 23.3737 1584.59 28.0739C1571.13 20.325 1569.99 20.198 1566.3 0ZM509.106 690.414C512.027 665.008 516.598 674.282 518.884 662.849C521.678 648.113 513.17 646.843 531.583 633.505C534.504 637.57 536.282 625.883 538.949 647.224C540.727 662.849 537.806 655.1 533.488 663.865L526.123 682.539C516.852 696.893 524.853 689.525 509.106 690.414ZM623.398 1555.88C618.548 1550.12 615.697 1542.94 615.27 1535.43C625.557 1517.13 632.922 1518.4 649.304 1527.55C644.351 1548.13 648.288 1554.61 623.906 1556.26L623.398 1555.88ZM1105.96 1695.61C1105.96 1695.61 1113.58 1721.02 1075.36 1706.79C1076.5 1674.02 1101.01 1662.58 1106.09 1695.99L1105.96 1695.61ZM109.593 536.834C92.4492 557.413 101.339 533.023 69.2101 544.964C72.7657 530.99 69.2098 538.993 76.5753 525.655C95.2429 493.516 102.482 523.877 109.593 536.834ZM25.9061 2197.13C27.3031 2160.93 46.7325 2163.34 61.0824 2179.98C51.9391 2198.02 46.9866 2205.39 26.4141 2197.13H25.9061ZM181.089 488.435C166.993 500.376 166.358 508.887 147.944 496.692C142.484 476.113 146.547 474.589 162.421 467.348L181.089 488.435ZM1301.66 1516.24C1317.02 1512.43 1317.28 1524.12 1321.21 1535.81C1309.15 1543.81 1305.97 1549.27 1287.69 1544.06C1286.42 1526.03 1287.69 1519.8 1301.66 1516.24ZM1511.7 1069.98C1496.59 1079.13 1506.11 1076.84 1488.46 1072.78C1487.57 1041.4 1483.51 1038.61 1509.29 1040.77C1514.62 1059.19 1515.51 1053.34 1511.7 1069.98ZM784.93 1790.12C788.993 1802.83 794.708 1809.18 786.708 1819.85C769.945 1841.95 737.181 1807.91 784.93 1790.12ZM1056.94 821.892C1040.94 825.576 1045.01 824.305 1034.72 813.635C1028.54 809.093 1024.32 802.373 1022.91 794.834L1031.55 784.799C1043.36 787.72 1042.72 789.88 1049.58 800.169C1059.74 815.413 1056.82 797.121 1056.94 821.892ZM1418.36 1067.82C1395.25 1086.24 1404.9 1074.43 1390.04 1053.09C1381.41 1040.39 1385.47 1053.09 1382.42 1030.99L1403.5 1035.94C1403.5 1037.21 1404.39 1038.99 1404.77 1040.26C1408.71 1051.44 1402.23 1039.24 1408.45 1051.69C1432.84 1100.34 1409.6 1038.99 1418.36 1067.82ZM903.285 1961.62C892.872 2014.21 848.679 1962.76 890.586 1948.91C901.507 1956.15 895.666 1950.06 903.285 1961.62ZM1779.52 1497.7C1777.74 1512.05 1776.47 1522.21 1764.03 1528.57C1760.61 1520.24 1759.15 1511.24 1759.74 1502.25C1760.34 1493.27 1762.98 1484.54 1767.46 1476.74C1777.87 1478.77 1781.05 1481.82 1779.01 1497.7H1779.52ZM1760.47 1851.35C1761.86 1853.18 1762.87 1855.27 1763.43 1857.49C1763.99 1859.72 1764.09 1862.03 1763.74 1864.3C1763.38 1866.56 1762.57 1868.73 1761.36 1870.68C1760.14 1872.62 1758.54 1874.3 1756.66 1875.62C1745.87 1884.63 1742.19 1878.16 1736.98 1875.62C1726.44 1843.1 1755.01 1844.62 1760.47 1851.35ZM1813.43 1872.31C1813.43 1904.2 1797.93 1911.06 1783.08 1890.86C1787.52 1868.5 1795.4 1866.34 1813.55 1872.31H1813.43ZM674.321 170.095C667.59 170.73 670.638 173.144 665.432 168.57L659.717 159.805C647.018 141.259 644.732 147.102 648.415 131.985C654.764 127.92 639.017 125.634 658.701 127.158C678.385 128.683 671.4 149.643 671.4 154.724C672.416 168.062 670.638 158.916 674.448 170.476L674.321 170.095ZM1718.18 525.401C1714.77 526.844 1711.19 527.826 1707.52 528.323L1696.98 527.307C1679.07 490.722 1725.93 477.891 1718.18 525.401ZM175.628 1623.59C173.211 1618.33 171.959 1612.61 171.959 1606.82C171.959 1601.03 173.211 1595.31 175.628 1590.05L195.439 1593.23L197.471 1601.99C199.756 1655.6 204.582 1580.65 193.153 1624.47L175.628 1623.59ZM1460.01 1115.46H1457.09H1437.54C1431.06 1087.77 1434.74 1091.71 1452.9 1086.75L1461.16 1103.01C1465.6 1107.08 1462.93 1093.74 1471.7 1112.67L1460.01 1115.46ZM352.018 1568.96C341.478 1575.69 323.192 1596.66 336.653 1566.55C346.558 1544.19 335.383 1549.53 350.368 1549.4L360.4 1553.46C365.225 1554.35 370.559 1551.56 378.178 1557.28C359.765 1588.53 376.274 1553.72 352.018 1568.96ZM1043.99 327.232C1014.02 332.314 1005.89 303.35 1037.26 295.856C1048.56 309.194 1048.18 309.321 1043.99 327.232ZM69.7179 1135.15C70.6068 1162.84 66.9241 1164.75 45.2086 1160.56C41.0179 1129.18 51.8123 1126.13 69.7179 1135.15ZM391.258 1784.92C392.02 1761.29 395.83 1757.86 415.514 1758.62C425.165 1783.39 410.815 1796.35 391.258 1784.92ZM220.71 673.265C210.805 682.285 189.343 693.717 180.708 667.803C186.677 659.419 188.327 645.573 220.71 672.884V673.265ZM256.267 115.217L255.251 96.5437C297.285 69.9942 287.38 137.321 256.267 114.836V115.217ZM604.857 189.912C591.396 199.82 587.713 204.139 578.824 183.56C587.84 158.154 581.364 183.56 590.126 165.141C599.65 144.561 585.681 171.492 591.777 157.392C599.523 139.861 584.538 161.711 596.349 151.548L604.857 189.912ZM1649.99 1168.05C1622.43 1192.7 1627.39 1108.35 1655.45 1149.89C1656.38 1153.13 1656.43 1156.56 1655.58 1159.82C1654.73 1163.08 1653.02 1166.06 1650.63 1168.43L1649.99 1168.05ZM1196.76 512.825V493.643L1231.56 485.259L1219.49 505.711C1218.6 508.125 1223.94 520.447 1197.4 513.206L1196.76 512.825ZM728.8 1249.61C723.085 1228.01 740.102 1220.9 754.198 1240.08C749.88 1253.54 758.643 1254.31 744.039 1259.51C737.816 1261.93 731.848 1258.24 729.435 1249.73L728.8 1249.61ZM823.281 1076.59C856.807 1063.89 862.013 1107.33 823.281 1101.11V1076.59ZM333.732 1450.44C332.589 1425.04 338.049 1420.84 358.241 1425.04C358.876 1452.35 357.733 1456.54 334.367 1450.57L333.732 1450.44ZM477.866 150.405C470.374 165.649 461.992 180.003 443.579 161.33C446.5 150.278 445.484 146.848 456.278 144.434C463.896 144.32 471.388 146.392 477.866 150.405ZM1082.34 827.862C1084.12 807.918 1080.82 815.159 1088.31 801.567C1098.98 806.648 1101.01 805.124 1099.87 820.749C1098.85 834.087 1079.04 868.639 1082.6 827.862H1082.34ZM792.422 726.237C805.121 718.87 801.185 719.378 816.169 726.237C811.217 763.076 784.295 759.392 792.676 726.237H792.422ZM1113.58 256.222C1102.03 271.847 1096.31 271.593 1087.42 250.378C1090.47 242.63 1090.22 234.5 1100.12 235.897C1110.03 237.294 1111.93 244.281 1113.84 256.095L1113.58 256.222ZM374.242 1597.16C389.608 1576.84 399.64 1587.64 399.64 1613.3L379.956 1618.63L374.242 1597.16ZM908.365 98.1951L907.222 114.709C891.856 126.65 886.141 123.982 882.713 100.101C889.443 93.622 900.618 85.492 908.619 97.4329L908.365 98.1951ZM39.3672 116.615C39.3672 144.562 25.6521 149.516 19.0486 137.067C6.60339 111.787 30.8588 107.214 39.6212 115.852L39.3672 116.615ZM165.088 232.467C157.469 246.059 161.786 244.027 148.96 251.141L134.991 235.135C145.404 213.412 153.024 217.096 165.342 231.705L165.088 232.467ZM1376.71 1759.51C1367.82 1779.07 1379.75 1772.21 1352.71 1776.02C1339.12 1777.93 1340.01 1781.49 1335.05 1761.54L1376.71 1759.51ZM1597.29 189.658C1597.29 188.514 1595.64 185.211 1595.64 186.101C1595.64 186.99 1594.5 183.179 1594.5 182.417C1594.5 160.44 1610.12 166.665 1618.5 168.443C1618.5 168.443 1626.62 191.182 1605.8 192.96C1597.92 193.723 1600.72 191.69 1597.29 189.658ZM445.992 510.157C428.594 530.863 427.959 514.984 421.609 505.965L412.593 488.689C423.133 485.386 439.769 495.93 445.992 510.157ZM152.262 1381.34C176.009 1376.89 161.913 1377.4 168.263 1390.36C165.088 1393.28 168.263 1407.89 137.785 1399.38C138.547 1383.62 134.991 1384.64 152.262 1381.34ZM693.75 1858.21C698.322 1837 701.751 1834.84 719.149 1839.92V1857.7C706.45 1864.82 707.719 1866.85 693.75 1858.21ZM488.406 1752.01C498.185 1734.99 491.835 1739.31 505.169 1729.15L516.598 1740.71C506.566 1760.78 504.153 1769.54 488.661 1752.01H488.406ZM1598.05 2313.49H1566.43L1570.75 2296.34L1592.84 2291.9L1598.05 2313.49ZM375.639 85.8731C377.417 65.4211 379.194 68.2158 398.751 67.7076C400.021 96.4167 389.989 103.149 375.639 85.8731ZM327.509 503.044C327.509 503.044 311.254 498.597 331.319 481.956C337.741 478.063 344.605 474.95 351.764 472.683C345.288 490.34 344.526 505.838 327.509 503.044ZM798.645 1217.98C773.247 1214.67 782.898 1212.26 770.072 1198.03C782.771 1186.22 773.247 1191.3 792.041 1189.9L798.645 1217.98ZM865.315 2230.29C876.617 2226.48 878.014 2233.08 881.443 2235.62C876.236 2245.4 878.776 2268.9 855.283 2246.8C858.838 2232.95 853.124 2234.48 865.315 2230.29ZM452.468 1157.76C481.295 1152.68 480.787 1185.96 450.69 1184.18L452.468 1157.76ZM1168.44 738.559C1156.76 731.7 1162.85 729.032 1161.71 722.553C1178.35 708.453 1187.11 718.743 1185.71 733.351C1185.59 734.24 1184.57 747.96 1168.95 738.94L1168.44 738.559ZM1417.6 1255.7C1415.06 1267.39 1413.03 1264.72 1404.9 1267.39C1393.85 1245.79 1396.9 1240.71 1413.53 1235.76C1417.6 1242.49 1421.15 1241.22 1417.6 1255.7ZM1541.92 1143.66C1540.99 1139.14 1540.99 1134.47 1541.92 1129.94L1544.72 1122.57C1558.43 1114.57 1565.03 1113.94 1561.48 1145.57L1541.92 1143.66ZM178.93 1706.54C175.436 1701.97 173.14 1696.6 172.253 1690.92C171.366 1685.24 171.915 1679.43 173.85 1674.02C181.851 1676.05 190.232 1673 190.867 1692.31C191.629 1707.05 187.565 1702.73 179.184 1706.54H178.93ZM1132.5 1500.37C1128.69 1529.84 1110.53 1527.17 1107.11 1503.16C1118.92 1492.74 1117.14 1492.74 1132.5 1500.37ZM1681.1 1052.96C1685.17 1029.59 1690.25 1025.4 1706.5 1040.26C1699.26 1055.88 1705.49 1066.05 1681.1 1052.96ZM439.769 77.8701C413.101 94.2571 406.37 51.3206 437.991 56.5289L439.769 77.8701ZM350.875 628.931L328.271 631.726V609.877C345.669 605.177 348.971 604.669 350.875 628.931ZM569.934 1139.09L87.3696 883.248C58.2887 880.326 66.67 849.076 89.6554 859.112C94.4811 876.769 92.5763 871.434 87.6237 883.629L569.934 1139.09ZM1499 1006.6C1506.49 988.684 1504.08 992.114 1518.68 987.795L1523.51 1000.5C1512.08 1029.84 1503.57 1011.17 1499 1006.6ZM513.932 1626.38C508.598 1608.85 506.947 1591.7 527.392 1600.21C531.329 1607.71 535.52 1607.2 527.392 1618.89C523.329 1625.62 523.075 1622.7 513.932 1626.38ZM1346.1 404.34C1329.34 410.565 1334.55 411.073 1321.97 400.402C1327.05 372.964 1346.1 379.061 1346.1 404.34ZM1329.59 1212.39C1333.66 1185.96 1348.13 1185.58 1352.58 1212.39C1339.12 1224.45 1342.55 1224.58 1329.59 1212.39ZM556.6 2279.45C553.614 2284.26 549.105 2287.94 543.79 2289.9C538.475 2291.85 532.659 2291.97 527.266 2290.25C531.075 2264.84 544.917 2264.46 556.6 2280.34V2279.45ZM1730.88 2228.64C1726.82 2209.71 1730.88 2221.65 1732.53 2217.58C1732.53 2217.58 1729.87 2206.4 1745.23 2215.42C1746.58 2216.22 1747.66 2217.39 1748.36 2218.78C1749.06 2220.18 1749.34 2221.75 1749.17 2223.3C1749.17 2239.81 1744.22 2236 1738 2241.21C1732.92 2234.99 1735.07 2248.71 1730.88 2228.64ZM1641.99 1479.15C1620.66 1507.61 1615.7 1484.99 1615.45 1484.74C1619.89 1474.71 1612.66 1473.69 1628.15 1472.04C1650.24 1469.37 1639.96 1477.37 1641.86 1479.28L1641.99 1479.15ZM1488.33 1590.94C1502.55 1590.94 1492.4 1587.64 1500.01 1601.48C1490.74 1616.6 1488.46 1617.62 1474.62 1607.07C1476.39 1600.97 1475 1591.19 1488.2 1591.07L1488.33 1590.94ZM188.708 860.255C173.723 839.803 184.518 825.576 204.709 840.692C200.137 857.588 202.423 855.555 188.708 860.255ZM1034.34 1962.76C1021.64 1943.96 1032.69 1929.35 1049.45 1941.42C1049.32 1964.03 1053.01 1955.9 1034.34 1962.76ZM1428.01 1644.16C1432.07 1625.62 1439.82 1613.55 1455.95 1623.84C1450.23 1637.31 1444.9 1646.2 1428.52 1643.66L1428.01 1644.16ZM333.478 1919.19C337.922 1897.08 341.478 1900.13 358.876 1906.48C353.796 1922.24 352.272 1932.4 333.986 1918.68L333.478 1919.19ZM90.5444 483.862C82.671 497.327 77.8453 499.233 65.1462 497.327V478.272C80.6392 476.494 78.8612 472.302 90.5444 483.862ZM1060.37 2227.62C1049.07 2219.62 1056.82 2226.48 1053.52 2211.49C1071.67 2202.72 1072.56 2202.47 1076.75 2227.11C1071.42 2228.64 1068.25 2233.21 1060.37 2227.62ZM933.382 1213.66C929.191 1223.95 930.715 1232.33 920.683 1233.73C910.651 1235.12 911.032 1229.15 908.873 1217.98C922.334 1208.32 915.349 1210.23 933.89 1213.27L933.382 1213.66ZM1656.21 2070.74C1643.51 2077.09 1654.69 2077.98 1639.83 2070.74C1633.48 2042.03 1665.36 2038.98 1656.21 2070.74ZM1660.15 1413.6C1660.15 1413.6 1644.78 1428.21 1642.88 1406.24C1641.61 1391.88 1650.12 1393.53 1655.58 1393.53C1668.02 1406.49 1663.83 1400.77 1660.15 1413.6ZM271.887 550.553C260.839 563.256 250.553 567.067 250.68 539.501C261.982 532.261 270.363 534.801 271.887 550.553ZM1131.49 1095.64C1140.12 1079 1140.12 1081.54 1154.35 1088.53C1150.03 1099.58 1156.89 1103.14 1144.95 1106.44C1133.01 1109.74 1134.41 1100.85 1131.49 1095.64ZM886.649 576.595C880.554 616.99 866.204 589.298 861.251 568.973C876.871 578.119 872.68 569.989 886.649 576.595ZM73.9087 617.372C61.2096 629.44 69.21 625.375 54.2251 621.31L52.8281 604.16C63.6223 599.587 73.9086 598.444 73.6547 617.372H73.9087ZM1022.78 1086.24C1007.93 1094.25 1008.94 1095.26 997.385 1083.45C1001.45 1073.79 994.718 1071.89 1009.2 1071.76C1023.67 1071.64 1018.72 1075.07 1022.78 1086.24ZM1296.45 956.545L668.352 1001.01C661.876 1006.21 674.956 1006.6 654.637 1006.47C641.938 1006.47 654.637 1008.12 645.748 1001.9C651.209 981.951 663.019 971.026 668.352 1001.01L1296.45 956.545ZM848.298 493.516C852.616 511.173 841.314 521.336 833.313 511.428C822.646 498.216 832.805 486.275 848.298 493.516ZM1528.84 1221.15C1521.1 1206.03 1530.75 1205.53 1530.62 1203.11L1540.65 1202.35C1548.65 1217.85 1548.91 1212.77 1540.65 1227.76C1533.79 1225.98 1533.03 1229.54 1528.84 1221.15ZM881.189 1137.31C883.348 1120.67 876.744 1126.26 887.665 1118.26C898.587 1110.25 900.999 1123.21 901.253 1123.34C896.936 1143.15 898.967 1142.14 881.062 1137.06L881.189 1137.31ZM1497.47 1651.66C1494.81 1658.14 1499.25 1669.44 1480.84 1661.82C1472.97 1658.65 1473.22 1653.44 1470.55 1646.07C1476.27 1644.73 1482.23 1644.73 1487.95 1646.07C1496.08 1647.59 1493.16 1648.23 1497.35 1651.66H1497.47ZM111.244 264.098C95.4971 262.065 99.3068 264.987 88.3856 256.984C92.3223 241.74 89.4015 245.297 101.085 239.708C110.482 250.76 107.688 242.248 111.244 264.098ZM1759.71 2157.75C1747.01 2168.8 1750.19 2166.39 1738.63 2158.9C1743.84 2135.65 1756.16 2129.3 1759.71 2157.75ZM421.228 1062.11L418.307 1060.2L412.72 1056.65C417.139 1053.29 422.536 1051.47 428.086 1051.47C433.636 1051.47 439.033 1053.29 443.452 1056.65L440.023 1069.35C420.72 1075.95 441.928 1075.7 421.228 1062.11ZM513.932 1017.77C499.963 1029.46 503.645 1027.3 493.105 1016.5C495.772 1008.75 496.026 1001.39 505.042 1002.02C515.963 1002.66 512.154 1005.07 513.932 1017.77ZM1250.48 1820.23C1238.79 1832.93 1242.35 1832.93 1228.89 1824.04C1230.92 1811.34 1226.6 1809.69 1238.29 1808.04C1249.97 1806.38 1247.68 1815.15 1250.1 1820.23H1250.48ZM1137.08 1874.22C1143.68 1855.67 1146.09 1856.05 1158.92 1868.63C1153.84 1875.49 1167.3 1875.49 1150.03 1881.33C1132.76 1887.18 1136.82 1873.84 1136.69 1873.84L1137.08 1874.22ZM853.505 105.69C844.234 122.585 846.266 120.426 832.678 112.55C830.773 91.3354 851.092 89.684 853.505 105.69ZM1270.8 36.3309C1263.18 20.0709 1262.16 27.3117 1256.83 12.8302C1267.49 1.01625 1258.1 4.31906 1277.27 5.20828C1273.21 32.9011 1273.84 7.74891 1270.8 36.3309ZM1762.38 725.729C1762.38 703.372 1762.38 702.228 1782.19 700.323C1779.65 720.775 1779.27 721.029 1762.38 725.729ZM978.464 449.563C979.48 451.469 992.814 447.531 976.686 469.888C956.494 467.475 970.082 471.54 963.987 460.107C968.304 446.642 967.415 444.355 978.464 449.563ZM542.251 1210.61C534.758 1226.36 561.553 1239.7 525.361 1241.98C529.932 1207.18 526.758 1236.01 542.251 1210.61ZM1395.12 1579C1397.15 1556.64 1390.93 1560.83 1413.41 1562.1C1411.25 1582.55 1411.12 1589.16 1395.12 1579.38V1579ZM922.334 611.782C920.429 614.196 925.509 623.215 911.286 618.642C897.063 614.069 901.761 612.799 898.587 600.349C909.635 601.239 921.191 600.985 922.334 611.782ZM865.442 1816.17C853.378 1798.63 857.315 1796.09 873.569 1790.76C881.189 1808.92 880.427 1809.31 866.077 1816.17H865.442ZM593.555 667.041C593.555 667.041 597.745 671.106 570.569 673.901C571.966 657.895 568.537 654.338 579.205 653.448C587.713 653.194 584.284 658.784 593.555 667.041ZM928.81 1321.63C918.778 1334.34 927.794 1330.91 909 1328.37C909.762 1315.66 907.857 1309.95 917.762 1308.8C925.255 1308.17 926.27 1314.9 928.81 1322.01V1321.63ZM333.859 2257.47C324.969 2268.14 321.16 2276.14 308.461 2268.65C310.746 2259.76 298.301 2261.03 318.239 2253.91H328.525L333.859 2257.47ZM185.787 365.85C177.406 386.175 182.867 377.918 171.311 384.015L163.945 372.964C169.152 363.055 172.073 353.401 185.787 365.85ZM284.713 177.971C280.649 185.974 284.713 186.99 275.697 189.022C256.14 193.341 264.014 184.83 262.363 183.56C269.474 168.443 275.951 164.251 284.713 177.971ZM624.922 775.017C647.653 752.406 644.732 783.528 644.986 784.799L619.588 783.655C621.366 780.353 618.953 780.607 624.922 774.636V775.017ZM350.875 531.372C346.812 566.686 335.637 553.983 331.446 528.323L350.875 531.372ZM964.749 262.065C954.335 274.768 952.05 274.006 944.176 255.841C953.701 246.059 960.431 240.724 964.749 262.065ZM602.571 1895.18C606.381 1874.85 602.571 1885.4 614.508 1875.87C627.08 1891.75 619.334 1907.63 602.571 1895.18ZM554.061 64.0237C550.505 84.6028 554.061 85.1109 538.187 79.9026C534.631 63.2615 537.298 56.0208 554.061 64.0237ZM121.022 34.6795C116.577 43.0636 122.292 42.8095 111.625 46.4934C97.9099 51.3206 102.99 42.1744 100.831 32.52C111.371 27.6928 113.53 22.4845 121.149 34.6795H121.022ZM823.789 305.891C815.027 322.151 812.233 323.548 805.121 302.334C811.217 295.475 820.106 284.423 823.789 305.891ZM1163.62 1690.91C1181.52 1685.45 1177.2 1696.12 1177.33 1696.25C1167.17 1706.03 1171.87 1717.08 1154.85 1701.71C1159.43 1692.82 1153.58 1694.09 1163.62 1690.91ZM242.679 628.931L236.457 633.886C228.329 635.156 234.425 635.537 225.028 632.996C225.662 604.16 245.854 608.098 242.679 628.931ZM1459.89 75.7106L1444.27 78.7593C1443.76 40.777 1463.06 53.8612 1459.89 75.7106ZM1193.21 2313.49H1173.65C1179.24 2291.77 1171.36 2300.79 1189.01 2295.83C1193.97 2303.46 1194.73 2285.67 1193.71 2313.49H1193.21ZM360.908 429.492L348.208 432.922C346.431 410.946 344.018 420.219 355.574 408.786C364.717 418.568 367.892 414.757 360.908 429.492ZM1616.08 1532.76C1616.08 1530.34 1601.23 1532.76 1613.8 1507.35C1624.21 1513.07 1619.51 1508.24 1628.15 1520.06L1616.08 1532.76ZM635.716 807.791C623.016 817.573 626.572 817.192 615.016 806.394C622.255 787.466 628.985 787.466 635.716 807.791ZM546.822 1372.19C550.378 1346.78 541.362 1349.96 564.22 1353.14C562.696 1371.3 560.791 1371.05 547.457 1372.19H546.822ZM408.021 1662.84C403.704 1674.53 404.084 1699.93 385.925 1685.07C390.278 1674.95 398.447 1666.96 408.656 1662.84H408.021ZM1405.79 1757.35C1402.61 1762.68 1408.2 1766.88 1395.25 1767.64C1382.29 1768.4 1388.52 1763.32 1385.72 1757.35C1394.49 1749.09 1376.58 1753.16 1395.5 1751C1417.6 1748.46 1397.79 1749.35 1406.42 1757.35H1405.79ZM326.366 1175.17C336.653 1163.61 327.382 1166.15 346.177 1169.2C343.637 1184.57 345.288 1179.36 336.525 1190.66L326.366 1175.17ZM120.26 1450.95C127.372 1441.68 125.975 1440.03 139.055 1438.25L141.722 1454.63C125.213 1457.3 130.673 1460.22 120.26 1450.44V1450.95ZM154.675 456.55C140.706 466.459 140.452 458.583 139.182 457.947C135.88 439.274 152.008 424.665 154.675 456.042V456.55ZM865.823 2314H840.425C846.139 2300.15 842.33 2300.15 858.965 2299.9C864.426 2305.74 861.505 2302.82 865.442 2313.49L865.823 2314ZM1224.95 884.264C1218.1 891.124 1235.87 889.981 1212.25 890.235C1198.16 890.235 1211.24 891.124 1203.75 885.661C1211.87 866.734 1212.38 866.353 1224.95 884.264ZM1458.62 454.009L1461.54 471.54C1431.31 473.699 1440.84 448.801 1458.62 454.009ZM602.317 1032C596.857 1062.74 589.618 1056.26 584.665 1034.16C595.46 1027.05 588.094 1027.68 602.317 1032ZM991.036 1918.68C997.258 1902.29 993.068 1898.48 1009.07 1913.09C1003.99 1920.2 1018.08 1919.95 1000.81 1924.52C983.543 1929.1 996.242 1923.25 991.036 1918.68ZM1449.85 287.472C1451.38 262.701 1448.08 267.655 1461.66 262.065C1471.57 281.882 1464.46 276.928 1449.85 287.472ZM716.228 1173.39C717.879 1155.73 710.767 1160.68 728.927 1157.13C735.784 1168.43 733.626 1162.46 730.705 1178.47L716.228 1173.39ZM1518.68 2100.71C1507.38 2077.34 1517.41 2077.47 1531.38 2082.93C1525.16 2097.41 1536.59 2096.01 1519.19 2101.1L1518.68 2100.71ZM282.173 1839.67C288.015 1825.69 287.253 1824.8 302.873 1828.23C296.65 1839.16 301.73 1856.31 282.173 1840.05V1839.67ZM378.178 616.99C372.21 633.505 376.146 635.283 360.527 624.231C362.432 617.372 356.717 616.609 365.733 612.417C381.734 605.558 376.274 616.228 378.178 617.372V616.99ZM694.64 1061.6C705.561 1048.9 695.782 1052.96 707.339 1054.23C711.148 1060.46 710.513 1055.12 710.513 1066.17C710.513 1077.22 709.751 1070.49 705.942 1076.72C696.417 1072.02 698.322 1073.54 694.64 1062.23V1061.6ZM1443.88 166.284C1439.95 176.446 1441.98 188.514 1424.07 171.746C1430.3 157.9 1430.3 155.994 1443.76 166.919L1443.88 166.284ZM188.581 1090.05C194.804 1080.4 190.74 1085.86 199.376 1087.77C209.789 1105.04 195.566 1104.28 187.692 1103.77C187.692 1103.65 177.66 1106.82 188.581 1090.05ZM920.81 237.929H905.317C904.428 205.409 922.334 216.08 920.81 237.929ZM849.314 74.6943C839.663 86.2542 836.615 92.8598 829.504 72.2807C839.028 64.1508 841.187 58.0533 849.314 74.6943ZM424.53 1687.99C422.879 1693.2 436.467 1713.4 408.275 1704.12C414.371 1685.45 406.243 1691.67 424.53 1688.24V1687.99ZM1312.7 2240.96C1323.12 2225.59 1311.69 2232.95 1329.97 2229.78C1328.2 2245.02 1334.93 2242.48 1323.5 2248.83C1316.01 2253.53 1312.96 2241.47 1312.7 2241.21V2240.96ZM689.306 2263.19C697.052 2251.25 690.322 2253.79 705.307 2253.79C705.307 2267.38 714.196 2264.58 701.116 2271.57C693.75 2275.64 689.306 2263.57 689.306 2263.44V2263.19ZM1065.71 1011.93C1067.48 1010.53 1062.4 1000.37 1078.41 1007.74C1090.09 1013.2 1079.93 1006.34 1084.37 1019.68C1064.94 1028.19 1070.91 1024.63 1065.71 1012.18V1011.93ZM569.299 1571.88C578.951 1559.18 580.475 1571.88 581.999 1574.04C576.665 1590.56 585.173 1580.78 571.585 1587.89C570.316 1585.73 558.124 1587 569.299 1572.14V1571.88ZM747.722 2083.31C745.563 2064 746.706 2056.89 762.833 2068.58C756.23 2080.14 768.548 2082.93 747.722 2083.57V2083.31ZM1119.3 375.885L960.431 2069.08C973.13 2074.42 965.257 2065.15 973.13 2079.88C960.431 2104.91 953.574 2090.55 960.431 2069.08L1119.3 375.885ZM1574.94 1384.77C1583.7 1367.74 1584.59 1368.63 1594.88 1384.77C1590.05 1389.09 1594.11 1389.85 1584.72 1390.86C1568.08 1392.64 1580.02 1389.47 1574.94 1384.77ZM95.8779 378.426C92.1953 391.129 100.323 386.048 83.9408 393.543C76.5753 378.934 76.9563 388.08 83.9408 370.55L95.8779 378.426ZM773.501 1694.98C775.278 1670.97 783.533 1673.38 792.422 1685.07C784.803 1695.99 788.74 1695.1 773.501 1694.98ZM710.005 641.762C708.481 637.188 706.196 640.745 708.1 630.202C710.005 619.658 707.339 629.312 712.799 619.531C720.165 628.931 734.514 644.556 710.005 641.635V641.762ZM1513.48 484.37C1509.16 505.33 1513.48 499.995 1499.13 497.708V478.908C1508.9 481.194 1509.29 478.145 1513.48 484.37ZM1563.38 1612.79C1572.02 1600.08 1569.86 1597.16 1584.46 1607.2C1575.83 1616.6 1580.53 1629.68 1563.38 1612.79ZM281.92 1411.44C281.92 1390.61 279.634 1403.69 286.745 1391.25C300.841 1399.12 297.158 1395.82 295.253 1407.38C289.158 1411.32 305.032 1414.11 281.92 1411.44ZM684.988 37.3472C667.336 28.328 676.988 38.7445 671.4 19.8169C687.909 14.2275 691.973 17.2762 684.988 37.3472ZM1242.22 282.517C1237.52 299.794 1244.89 287.98 1233.46 298.396C1212.51 279.088 1232.95 274.006 1242.22 282.517ZM1325.78 1418.3C1339.88 1417.41 1329.97 1416.65 1334.04 1429.23C1333.19 1430.01 1332.25 1430.69 1331.24 1431.26C1323.62 1434.18 1335.31 1437.87 1313.85 1431.26C1318.29 1423.64 1316.01 1418.81 1325.78 1418.3ZM1692.02 1662.84C1690.37 1665.25 1694.56 1673.25 1680.98 1673C1669.42 1673 1676.28 1673 1672.34 1660.3C1678.82 1657.5 1669.04 1657.25 1681.36 1657.88C1689.1 1657.88 1688.98 1660.81 1692.02 1662.84ZM850.838 1526.92C858.711 1527.68 858.076 1533.77 858.457 1544.7H844.362C843.727 1531.87 838.647 1525.64 850.838 1526.92ZM1521.22 1437.23C1518.56 1419.95 1514.87 1421.1 1535.45 1419.83C1534.3 1436.6 1536.97 1437.23 1521.22 1437.23ZM264.014 1034.67L279.76 1035.43C277.856 1051.56 276.459 1053.98 266.427 1052.83C266.427 1051.56 264.903 1049.91 264.776 1049.15L264.014 1034.67ZM699.084 566.559L715.593 560.208L712.799 584.089C700.1 577.357 702.767 580.914 699.084 566.559L664.923 591.965C652.859 601.62 644.097 617.372 626.826 605.558C630.763 581.93 630.128 591.584 646.002 579.262C644.478 552.84 648.796 558.302 636.605 547.123C657.177 534.42 660.098 520.701 667.082 493.389L693.75 527.942C696.894 532.386 701.327 535.756 706.45 537.596L699.084 566.559ZM144.516 599.333C144.516 600.095 155.564 602.001 146.293 613.561C137.023 625.121 136.134 613.561 132.705 611.274C136.642 599.206 136.134 597.428 144.516 599.333ZM1198.54 1041.66C1205.14 1023.24 1211.24 1017.27 1220.13 1044.07L1198.54 1041.66ZM931.858 567.321C922.08 586.63 921.699 578.881 914.587 575.451C916.111 569.481 912.937 566.813 919.413 563.383C937.573 553.602 928.81 565.416 931.604 567.321H931.858ZM191.883 892.013C187.565 875.245 185.534 889.218 193.407 873.848C205.344 877.786 201.661 864.066 205.217 891.886L191.883 892.013ZM1395.25 1390.36C1393.6 1393.02 1398.8 1398.23 1386.61 1399.12C1371.63 1400.14 1378.61 1393.53 1376.07 1390.36C1393.34 1375.37 1392.2 1387.94 1395.25 1390.36ZM1347.12 1044.96C1329.21 1042.8 1341.15 1048.77 1331.88 1037.72C1335.31 1026.54 1334.67 1026.16 1346.74 1025.01L1347.12 1044.96ZM1514.36 1181.9L1531.76 1184.57C1529.86 1187.49 1536.72 1199.05 1523.25 1199.05C1514.49 1199.05 1516.78 1193.33 1514.36 1181.9ZM1250.99 1173.39C1247.05 1186.09 1252.26 1189.27 1233.46 1181.77C1238.79 1165.13 1233.97 1160.81 1250.99 1173.39ZM1758.31 350.352C1754.5 356.323 1743.58 373.091 1743.46 350.352C1743.33 333.584 1756.41 339.173 1758.31 350.352ZM785.311 784.799L790.136 768.666L800.931 771.206C808.042 787.593 794.581 786.958 785.311 784.799ZM1021.26 2218.98C1017.58 2229.52 1027.36 2225.33 1013.77 2229.27C996.496 2234.35 1010.21 2229.27 1004.37 2224.57C1010.47 2210.34 1006.27 2205.13 1021.26 2218.98ZM828.361 844.884C837.758 826.338 839.155 828.625 845.631 844.884C829.377 863.304 832.805 849.458 828.361 844.884ZM1026.21 1796.35C1016.81 1809.05 1022.91 1805.49 1005.13 1808.42C1010.47 1792.79 1010.34 1784.03 1026.21 1796.35ZM1219.62 1540.51C1214.03 1556.13 1216.95 1553.21 1202.73 1548.76C1206.54 1532.89 1201.71 1524.88 1219.62 1540.51ZM849.568 1879.68C839.536 1893.4 839.917 1898.74 831.408 1879.68C843.472 1866.85 838.774 1867.1 849.568 1879.68ZM647.526 1682.27C646.51 1668.68 647.526 1661.82 662.257 1668.43C659.209 1674.14 669.749 1685.83 647.526 1682.27ZM71.4957 1121.56C61.4635 1104.16 61.7174 1108.86 75.1785 1099.33C78.6072 1104.92 83.1788 1090.44 77.9723 1115.21C76.5753 1119.78 71.4957 1120.92 71.4957 1121.56ZM969.955 514.603C965.003 530.609 969.955 533.531 953.446 523.496C957.256 513.714 951.923 503.552 969.955 514.603ZM1005.77 850.474C1010.85 845.52 999.544 846.663 1014.15 844.884C1031.55 842.852 1016.18 843.741 1022.78 850.474C1013.89 873.212 1010.47 861.78 1005.77 850.855V850.474ZM1334.42 209.729C1319.18 202.488 1319.31 207.569 1329.97 189.658C1340.13 196.009 1345.34 193.214 1334.42 209.729ZM273.792 1150.9C283.316 1136.17 271.252 1141.12 287.38 1142.77C295.634 1161.19 287.38 1155.48 284.205 1161.7L273.792 1150.9ZM657.685 462.394C651.971 466.84 660.733 468.11 649.558 466.459C638.383 464.807 646.256 466.459 640.922 461.377C646.637 449.436 653.875 437.368 657.685 462.648V462.394ZM1185.97 675.425C1164.38 681.522 1174.54 681.649 1168.57 666.66C1189.78 651.035 1179.62 667.041 1185.97 675.679V675.425ZM663.273 383.253C656.796 388.842 671.4 390.24 654.256 388.461C637.113 386.683 651.97 388.461 645.875 383.253C647.018 381.094 645.875 373.345 654.383 373.726C662.892 374.107 662.13 373.599 663.273 383.761V383.253ZM1197.4 2263.31C1179.62 2279.7 1184.7 2268.14 1180.89 2255.18C1193.84 2250.48 1191.81 2248.58 1197.4 2263.44V2263.31ZM1408.96 2279.19C1402.49 2289.36 1408.96 2302.19 1390.93 2291.13C1395.88 2276.4 1384.83 2278.43 1408.96 2279.32V2279.19ZM1369.6 1167.8C1383.95 1156.36 1381.41 1157.38 1387.12 1175.42C1372.01 1181.39 1376.45 1183.55 1369.6 1167.92V1167.8ZM532.472 1548.89C536.536 1536.95 528.79 1541.9 540.219 1536.19C555.077 1529.46 545.044 1536.95 549.362 1540C541.362 1559.31 547.076 1553.97 532.472 1548.76V1548.89ZM373.988 144.689C371.067 150.024 379.194 154.978 365.225 153.835C351.256 152.691 357.606 147.991 355.193 144.689C361.67 141.005 360.654 135.288 373.988 144.689ZM861.505 22.2305C853.251 37.4742 850.457 40.777 843.346 22.2305C846.266 19.9439 839.282 16.5141 851.854 17.6573C860.108 18.2925 856.934 19.1817 861.505 22.2305ZM799.534 1945.86C786.835 1948.53 798.518 1947.64 791.914 1940.27C804.613 1917.03 807.407 1934.56 808.677 1935.32C804.359 1947.52 810.328 1943.58 799.534 1945.86ZM929.953 623.342C939.605 610.639 927.414 618.896 945.827 615.212C943.541 623.342 949.383 627.915 938.335 631.599C927.286 635.283 931.223 624.358 930.334 622.834L929.953 623.342ZM613.873 939.523C604.73 939.523 609.302 938.634 604.222 934.823C614 914.625 615.016 920.722 622.001 935.458C616.159 939.777 625.683 938.379 614.254 939.015L613.873 939.523ZM1132.25 81.8081C1127.55 74.3132 1127.3 87.0164 1128.44 72.1537C1129.33 60.3398 1128.44 68.0887 1132.5 61.229C1147.87 71.0104 1144.82 74.4403 1132.25 81.8081ZM1436.01 1762.94C1441.6 1750.24 1434.11 1749.09 1452.9 1754.81C1447.57 1768.15 1453.54 1775.9 1436.01 1762.94ZM701.37 395.575C697.56 408.278 707.719 401.164 694.893 407.262C694.139 407.579 693.325 407.727 692.508 407.694C691.69 407.662 690.89 407.451 690.163 407.075C689.436 406.7 688.801 406.169 688.302 405.521C687.802 404.873 687.452 404.123 687.274 403.324C683.083 389.859 696.036 387.572 701.37 395.575ZM820.106 2242.23C805.883 2251.5 812.868 2248.45 803.089 2241.47C811.852 2220.63 814.519 2227.24 820.106 2242.23ZM1531.89 1851.99C1529.35 1862.02 1537.6 1863.29 1526.05 1867.36C1511.82 1872.57 1520.59 1864.56 1517.67 1854.66L1531.89 1851.99ZM882.586 1779.58C887.919 1767.89 881.062 1765.23 899.221 1771.83C894.142 1784.92 900.491 1792.54 883.094 1779.58H882.586ZM1239.81 1114.44C1245.65 1107.08 1237.52 1110.76 1247.18 1108.35C1264.32 1104.16 1249.08 1107.2 1256.32 1112.29C1248.07 1131.85 1249.84 1129.94 1239.81 1114.44ZM563.458 1760.53C557.743 1771.32 575.268 1774.5 550.759 1776.91C548.473 1753.16 544.028 1765.1 563.585 1760.53H563.458ZM783.787 329.392C774.771 339.554 774.898 339.681 764.865 333.711C766.643 330.535 758.135 326.978 773.755 324.311C786.454 322.278 778.199 321.77 783.787 329.392ZM535.012 809.189C541.108 794.326 535.012 786.831 551.521 801.567C544.409 815.413 555.965 814.016 535.012 809.189ZM1265.21 444.99C1276.38 432.287 1265.21 439.782 1281.59 438.258C1277.78 450.961 1290.61 444.482 1274.73 452.612C1267.88 456.296 1271.18 453.247 1265.21 444.99ZM1004.12 940.412C992.306 947.653 998.401 947.272 987.48 939.65C995.734 918.69 998.528 926.184 1004.5 940.666L1004.12 940.412ZM821.63 1873.84C810.455 1894.8 808.931 1880.06 801.947 1871.93C820.741 1865.96 817.948 1871.3 821.63 1873.84ZM243.949 925.422C248.013 904.462 240.266 908.146 256.648 908.781C256.521 930.758 265.665 919.452 243.949 925.803V925.422ZM936.43 1156.75C945.065 1138.33 945.192 1140.61 952.304 1156.75C944.303 1163.61 951.542 1170.59 936.43 1156.75ZM1783.2 835.484C1785.11 824.432 1788.03 830.149 1795.27 828.625C1795.27 828.625 1797.93 833.452 1790.82 846.409C1785.87 842.725 1780.16 853.268 1783.2 835.484ZM939.731 1022.73C927.794 1026.54 938.081 1023.49 932.366 1017.14C940.112 1004.44 934.017 1005.83 948.367 1010.28C944.303 1024.63 950.526 1019.3 939.731 1022.73ZM307.318 2063.24C304.27 2068.58 307.318 2085.6 290.682 2074.42C296.396 2058.79 285.221 2065.02 307.318 2063.24ZM1309.02 2179.98C1327.56 2160.93 1323.88 2179.98 1325.28 2182.27C1306.1 2195.73 1312.7 2184.43 1309.02 2179.98ZM228.329 1700.82C226.932 1692.06 222.361 1676.81 241.029 1685.07C232.266 1701.46 251.188 1690.91 228.329 1700.82ZM1074.72 1853.89L1092.25 1855.04C1087.42 1870.03 1085.14 1882.22 1074.72 1853.89ZM460.849 272.482C453.738 289.504 456.278 292.553 444.849 272.482C450.563 267.147 441.166 267.274 452.341 267.909C461.611 269.052 455.77 268.544 460.849 272.482ZM1342.17 1301.43C1337.97 1311.85 1348.13 1307.66 1334.16 1311.72C1317.91 1316.55 1330.1 1310.83 1325.4 1307.02C1332.51 1298.13 1330.74 1294.32 1342.17 1301.31V1301.43ZM531.075 1873.07C520.789 1855.67 524.345 1864.06 532.599 1854.91C549.743 1867.23 538.822 1867.1 531.075 1872.95V1873.07ZM193.153 69.232C191.883 66.1833 183.755 74.0592 190.486 57.9262C195.312 46.7475 187.438 56.7829 198.867 50.6854C204.963 72.1537 204.201 60.8479 193.153 68.5968V69.232ZM967.797 973.821C966.273 976.235 965.003 981.824 960.05 982.459C949.129 983.603 954.335 978.14 952.05 973.821C960.431 965.564 953.574 958.323 968.432 973.186L967.797 973.821ZM233.155 2202.85C240.266 2190.14 233.155 2190.14 249.537 2195.1C244.076 2201.32 252.585 2216.82 233.79 2202.21L233.155 2202.85ZM774.771 531.117C763.849 543.82 771.596 543.82 759.532 533.912C764.865 519.939 767.659 516.509 774.771 531.117ZM1308.13 1279.08C1316.39 1264.6 1313.34 1263.33 1323.62 1279.08C1308.13 1294.83 1314.61 1285.05 1308.13 1279.08ZM1079.55 706.293C1070.91 714.423 1094.53 713.026 1073.71 710.867C1064.44 709.85 1069.9 710.867 1064.31 706.293C1070.28 696.766 1057.58 698.545 1071.29 697.782C1083.48 697.147 1078.79 695.369 1080.06 706.293H1079.55ZM772.993 700.196C759.532 693.717 768.548 708.072 761.056 684.063H776.04L772.993 700.196ZM117.847 503.044C102.608 508.76 108.069 510.157 102.101 496.057C118.863 480.686 110.355 494.151 118.355 503.044H117.847ZM1296.19 489.197L1311.81 482.083C1309.02 494.786 1321.47 489.197 1305.59 496.946C1296.96 501.9 1296.19 489.197 1296.19 489.197ZM1357.28 1668.17C1376.33 1647.47 1372.01 1668.17 1374.17 1670.84C1367.82 1673.51 1376.71 1674.02 1365.4 1673C1354.1 1671.98 1361.85 1672.62 1357.28 1668.43V1668.17ZM1463.19 1068.84C1463.19 1057.66 1463.19 1065.28 1467.76 1058.68C1480.46 1074.3 1476.65 1068.08 1466.11 1080.4C1464.84 1077.73 1463.06 1079.26 1463.19 1069.09V1068.84ZM503.264 468.745C501.232 451.85 499.582 459.599 514.821 454.772C511.9 475.097 518.376 474.335 503.264 468.745ZM71.4957 1589.67C74.0356 1573.92 65.4003 1579.63 84.1948 1574.42C81.4011 1596.53 90.6714 1588.02 71.4957 1589.67ZM865.188 1690.53C868.109 1693.96 874.077 1693.83 867.093 1704C860.108 1714.16 857.822 1702.85 854.394 1700.06L865.188 1690.53ZM1018.47 1601.61C1021.01 1596.27 1016.31 1590.56 1026.72 1592.84C1037.13 1595.13 1027.99 1590.18 1032.69 1604.15C1013.64 1610.12 1022.02 1604.4 1017.96 1601.61H1018.47ZM1730.88 967.724C1746.25 956.418 1740.28 965.056 1744.47 967.724C1742.82 968.867 1740.54 997.322 1730.38 967.724H1730.88ZM420.466 267.02C413.609 285.82 416.149 280.739 405.481 271.085C412.593 260.541 406.243 256.984 420.466 267.02ZM982.908 874.737C994.465 870.672 984.051 873.466 990.02 879.818C982.4 890.108 987.861 890.108 974.4 886.805C979.099 872.831 972.495 878.294 982.908 874.737ZM469.739 655.227C454.5 632.615 466.564 639.094 470.882 633.124C475.58 650.146 476.977 641.635 469.739 655.227ZM48.7645 1995.91C51.6853 1976.1 48.7645 1977.49 61.4636 1985.37C55.749 1992.74 75.3055 1994.39 48.7645 1995.91ZM14.4769 731.573C14.4769 707.31 8.50842 723.443 21.5885 713.915C33.3987 723.443 21.7153 728.27 14.4769 731.573ZM933.509 931.52C934.144 929.868 935.668 933.425 936.811 934.314C928.048 942.063 931.985 956.291 920.429 934.314C926.525 929.614 920.429 930.758 930.207 929.868C930.842 929.741 933.001 933.044 933.509 931.52ZM350.875 94.6382C345.034 109.247 347.447 117.504 337.287 94.6382C348.208 86.7623 338.176 84.7298 350.875 94.6382ZM1428.77 1259.64C1438.17 1234.24 1443.12 1255.45 1444.14 1256.85C1431.31 1268.15 1429.53 1259.9 1428.77 1259.64ZM1622.69 675.933C1614.05 669.2 1618.37 674.79 1615.58 661.96L1624.08 660.054C1624.59 661.705 1636.78 665.135 1622.69 675.933ZM649.558 233.61C638.255 242.376 641.557 243.392 635.462 228.021C639.652 225.226 630.382 217.223 643.97 224.845C657.558 232.467 638.636 220.78 649.558 233.61ZM803.344 1724.96C806.899 1708.57 798.772 1712.25 814.265 1710.09C814.519 1729.78 824.297 1721.4 803.344 1724.96ZM1448.96 1534.41C1446.42 1538.6 1453.16 1544.83 1440.58 1542.29C1430.8 1540.25 1439.69 1543.94 1435 1532.38C1451.63 1526.03 1445.41 1532.5 1448.96 1534.92V1534.41ZM1497.09 2084.96C1480.59 2099.83 1481.73 2086.23 1480.33 2084.96C1486.3 2079.25 1472.46 2081.66 1488.33 2079.88C1506.49 2078.48 1489.86 2079.12 1497.09 2085.47V2084.96ZM403.577 1701.58C398.497 1714.29 410.307 1713.02 392.655 1715.43C390.37 1693.58 385.544 1703.23 403.577 1702.09V1701.58ZM1332.26 2115.45C1327.69 2125.87 1334.04 2123.71 1324.77 2125.49C1313.21 2127.52 1319.81 2122.31 1317.28 2118.37C1326.29 2111.39 1315.24 2111.26 1332.26 2115.96V2115.45ZM452.468 2246.8C454.5 2237.27 446.626 2225.71 464.532 2235.62C457.802 2242.86 477.866 2242.23 452.468 2246.8ZM1609.23 1329.13C1605.16 1341.2 1613.04 1335.99 1602.5 1337.89C1591.96 1339.8 1600.85 1338.78 1595.51 1332.3C1601.73 1322.52 1594.62 1317.95 1609.23 1329.13ZM1244.26 658.276C1227.24 663.103 1235.49 662.976 1229.02 649.256C1236.76 648.113 1247.3 647.478 1244.26 658.276ZM499.709 1155.86C482.565 1155.86 487.01 1164.49 489.168 1143.15C503.264 1144.42 496.915 1142.26 499.709 1155.86ZM115.943 133.51C111.244 135.415 123.435 145.451 104.64 134.145C94.6082 128.174 101.085 134.145 95.7511 122.204C104.259 125.761 97.5289 122.204 106.799 127.158C118.736 134.145 110.863 127.793 115.943 133.51ZM1501.03 105.69C1497.35 114.074 1506.24 111.66 1495.44 114.328C1486.93 116.361 1491.76 114.328 1486.68 111.279C1493.79 96.7978 1489.6 97.56 1501.03 105.69ZM714.45 2035.42C701.751 2045.96 708.735 2044.31 699.592 2035.42C717.625 2015.22 713.434 2034.15 714.45 2035.42ZM1444.14 1222.42C1455.69 1238.81 1445.66 1236.9 1438.81 1237.41C1437.41 1232.46 1435.76 1236.01 1438.81 1226.74C1441.09 1214.8 1437.15 1225.98 1444.14 1222.17V1222.42ZM1136.57 1574.55C1127.17 1585.48 1137.58 1591.83 1119.93 1585.6C1127.93 1568.96 1116.12 1576.08 1136.57 1574.3V1574.55ZM841.949 545.599L831.662 557.413L828.107 539.883C853.251 540.01 834.964 540.01 841.949 545.091V545.599ZM443.706 2202.72C457.675 2190.78 452.214 2195.61 459.96 2203.86C442.436 2216.82 447.134 2205.26 443.706 2202.21V2202.72ZM1474.49 1106.7C1483.25 1087.77 1479.32 1087.77 1487.19 1106.7C1478.17 1113.56 1484.65 1114.19 1474.49 1106.7ZM602.825 737.162C609.175 716.583 608.286 713.153 618.318 730.302L602.825 737.162ZM918.651 1516.75C923.477 1500.49 923.731 1502.4 933.636 1508.24C924.493 1523.36 938.589 1516.37 918.651 1516.75ZM918.651 703.753C914.079 697.528 909.381 707.945 914.841 695.496C918.651 686.985 909.762 691.685 926.27 689.652C922.334 705.15 931.731 695.877 918.524 703.626L918.651 703.753ZM733.118 510.284C733.118 512.825 745.817 505.076 733.118 519.049C726.514 526.29 730.832 521.336 723.466 523.75C726.641 508.76 721.688 509.014 732.991 510.157L733.118 510.284ZM52.8281 1502.14C56.1299 1489.44 52.8281 1493.38 60.3206 1487.54C76.0674 1498.21 61.8446 1500.11 52.7012 1502.02L52.8281 1502.14ZM743.912 267.02C742.007 268.163 745.817 279.723 730.451 267.02C748.864 247.838 743.785 266.893 743.912 267.02ZM1729.36 1172.75C1748.15 1176.05 1744.73 1179.61 1734.06 1188.76C1728.73 1178.34 1732.79 1190.54 1729.36 1172.75ZM882.205 1562.86C877.76 1570.99 893.888 1571.38 871.283 1576.71C871.537 1559.43 866.966 1566.8 882.205 1562.86ZM293.73 1623.84C291.063 1630.57 297.412 1634.64 286.872 1632.35C276.332 1630.06 286.872 1636.42 281.157 1622.06C301.222 1616.22 288.65 1620.92 293.73 1623.84ZM141.341 556.778C141.341 556.778 142.992 570.624 134.737 556.778C126.483 542.931 133.594 550.172 133.848 547.631C145.277 547.631 145.785 543.567 141.849 557.286L141.341 556.778ZM139.563 268.417C139.563 267.528 128.261 271.847 139.563 259.779C147.436 251.141 141.341 257.619 148.325 256.349C146.547 271.339 150.23 271.212 140.071 268.925L139.563 268.417ZM373.353 1212.39C364.464 1205.91 363.955 1223.31 362.559 1199.05C377.67 1198.03 370.432 1194.47 373.353 1212.39ZM980.496 1123.46C976.051 1127.02 981.385 1139.09 966.4 1123.46C982.019 1107.97 977.067 1120.67 980.496 1123.34V1123.46ZM1787.52 2059.05C1803.14 2060.32 1798.19 2057.14 1796.79 2070.86C1784.35 2072.89 1789.3 2077.72 1787.52 2059.05ZM1147.87 417.17L1141.77 427.079L1134.41 417.424C1145.71 405.102 1138.22 406.881 1147.87 417.17ZM236.584 1949.17C244.457 1947.64 238.87 1949.17 243.314 1953.87C237.219 1960.09 237.854 1963.27 228.837 1957.55C233.282 1950.06 220.456 1952.47 236.584 1949.17ZM204.074 2200.69C216.773 2193.83 205.979 2197.64 212.583 2203.74C203.439 2214.03 212.583 2211.74 199.883 2209.45C200.645 2209.33 191.756 2207.55 204.455 2200.69H204.074ZM86.4806 1322.52C95.116 1309.82 93.0844 1322.52 93.2113 1322.52C91.0525 1330.52 99.5608 1329.89 83.687 1334.08C85.2108 1324.81 80.2582 1332.56 86.8617 1322.52H86.4806ZM246.235 1612.79C240.52 1617.87 246.235 1616.34 237.727 1617.36C218.17 1619.77 241.917 1622.95 232.647 1612.79C253.347 1594.37 245.6 1611.77 246.616 1612.79H246.235ZM214.995 561.732C205.598 558.175 208.9 560.843 203.312 554.872C212.964 541.28 212.964 540.01 215.376 561.732H214.995ZM139.944 756.598C136.769 765.998 144.642 756.598 135.499 771.587C128.641 765.998 129.531 769.047 129.404 758.884L139.944 756.598ZM116.069 1504.18C110.863 1515.48 121.403 1509.64 106.291 1516.88C105.783 1495.79 99.9417 1501.38 116.45 1504.18H116.069ZM296.396 598.063C301.222 580.533 294.745 589.933 307.445 583.962C304.524 603.525 316.588 595.141 296.396 598.063ZM1114.98 1356.06C1113.2 1358.73 1114.98 1379.69 1105.58 1368.76C1098.6 1359.61 1109.77 1358.6 1114.98 1356.06ZM713.18 381.221C710.64 361.658 704.418 367.628 722.577 369.153C719.911 378.299 724.101 376.52 713.18 381.221ZM1775.08 144.053C1772.03 153.327 1770.76 154.089 1760.85 150.405C1763.65 145.705 1757.81 145.451 1766.95 142.529C1773.17 140.369 1773.17 142.91 1775.08 144.053ZM511.646 1366.35C492.597 1380.58 502.121 1366.35 500.47 1357.33C508.852 1361.52 507.074 1359.11 511.646 1366.35ZM71.4957 1398.23C79.8772 1399.38 76.3214 1396.96 81.782 1401.66C75.9404 1415.51 84.8298 1408.78 70.7339 1410.68L71.4957 1398.23ZM311 1601.48C309.984 1599.32 300.079 1607.71 311 1588.02C328.017 1597.8 312.778 1599.7 311.635 1601.1L311 1601.48ZM1338.74 984.619C1337.85 982.84 1327.05 990.081 1338.74 969.883C1352.07 982.713 1340.39 981.57 1338.74 984.619ZM674.829 1422.37C684.988 1407.12 681.178 1422.37 682.067 1423.38C682.956 1424.4 688.036 1427.07 673.686 1432.53C673.305 1423.38 672.543 1425.42 674.829 1422.11V1422.37ZM648.669 1178.6C638.255 1184.57 642.446 1187.36 635.97 1173.64C649.431 1166.02 640.033 1164.24 648.669 1178.34V1178.6ZM1773.93 411.581C1773.93 411.581 1775.2 424.284 1759.71 411.581C1770.89 400.275 1770.76 408.532 1773.93 411.581ZM1007.8 446.896C1007.8 439.528 1001.7 440.163 1016.94 435.59C1016.31 452.485 1018.72 449.563 1007.8 446.896ZM1760.47 1567.56C1776.85 1584.71 1760.47 1581.28 1760.47 1581.79L1756.92 1574.55C1751.71 1552.45 1753.36 1577.6 1760.47 1567.56ZM386.306 1226.61C372.845 1205.78 384.782 1215.18 386.306 1212.39C395.068 1221.66 395.195 1214.29 386.306 1226.61ZM839.536 627.788C843.853 620.166 842.457 621.691 849.06 618.007C850.203 636.045 853.124 636.299 839.536 627.788ZM882.332 1762.94C880.681 1760.14 868.363 1770.18 882.332 1747.7C888.808 1753.79 884.745 1744.77 885.633 1756.46C887.665 1781.74 889.062 1751.63 882.332 1762.94ZM1054.66 973.186C1050.59 976.235 1055.55 986.651 1040.94 973.186C1044.63 969.375 1044.12 963.786 1054.66 973.186ZM440.15 1328.87C440.15 1343.48 434.689 1337.26 432.657 1328.24C430.626 1319.22 439.769 1317.95 439.769 1329.13L440.15 1328.87ZM1037.01 871.561C1039.55 859.493 1035.61 862.161 1046.53 859.493C1046.66 874.61 1051.99 869.147 1037.39 871.307L1037.01 871.561ZM218.805 525.909C220.964 526.671 229.472 528.45 223.758 535.563C222.234 537.342 223.758 543.693 218.551 535.563C207.757 518.414 217.535 530.101 218.805 525.909ZM658.447 828.625C654.129 832.435 659.336 842.217 646.764 828.625C662.765 813.889 657.177 827.608 658.447 828.625ZM1705.23 1373.59C1700.53 1360.89 1703.45 1372.83 1709.3 1365.46C1715.39 1372.57 1711.96 1367.87 1714.88 1377.4C1699.52 1378.42 1708.15 1381.72 1705.23 1373.59ZM1680.98 1329.13C1677.8 1336.62 1687.2 1338.65 1673.61 1337C1666.12 1336.11 1670.82 1329.51 1670.82 1328.11L1680.98 1329.13ZM21.9695 1406.62C38.0973 1420.21 21.9695 1419.32 21.9695 1419.32C21.3123 1418.22 20.5913 1417.16 19.8104 1416.14C13.8419 1392.01 16.8899 1415.13 21.9695 1406.62ZM777.564 622.834C768.929 629.694 769.564 628.423 762.96 622.834C773.374 612.29 773.247 618.642 777.564 622.834ZM1185.71 578.119C1185.71 585.106 1175.68 590.187 1178.47 578.119C1180.25 571.513 1185.97 561.605 1185.71 578.119ZM264.395 238.946C264.395 244.408 252.585 252.538 256.902 238.946C258.172 235.135 265.665 222.432 264.395 239.2V238.946ZM841.314 52.972C832.678 48.3989 833.821 52.2098 831.916 41.7933C844.489 45.6042 846.139 36.2039 841.314 52.972ZM1593.35 72.2807C1590.18 75.2025 1594.5 86.8893 1582.3 72.2807C1598.43 58.1803 1591.57 71.1375 1593.35 72.2807ZM149.214 1777.55C163.31 1784.79 152.516 1784.28 149.214 1790.25C133.213 1761.8 145.658 1784.15 149.214 1777.55ZM1800.09 1028.83C1800.09 1046.23 1794.25 1034.67 1793.11 1028.83C1791.97 1022.98 1801.24 1016.12 1800.73 1028.83H1800.09ZM116.323 742.497C117.974 771.714 109.466 750.373 108.704 749.738C109.593 741.354 109.593 745.038 116.323 742.497ZM1722.38 380.967C1708.03 374.996 1715.9 384.142 1711.45 367.374C1739.14 374.869 1711.45 367.755 1722.38 380.967ZM1689.61 1145.69C1680.98 1151.66 1689.61 1156.62 1677.55 1145.69C1694.95 1131.34 1689.23 1145.06 1690.12 1145.69H1689.61ZM953.955 1209.21C942.779 1203.62 953.954 1217.34 943.541 1200.32C956.621 1196.25 955.097 1193.2 954.462 1209.34L953.955 1209.21ZM469.231 532.769C467.326 529.72 458.31 536.58 469.231 519.177C473.549 525.655 480.787 519.812 469.739 532.896L469.231 532.769ZM1742.69 2113.29C1736.85 2118.75 1737.49 2121.55 1729.99 2113.29C1745.11 2100.46 1740.03 2111.13 1742.69 2113.29ZM1536.84 795.342C1536.84 804.362 1532.14 805.632 1529.98 793.945C1527.83 782.258 1536.72 784.037 1536.84 795.342ZM976.813 1429.23C956.621 1449.55 966.4 1430.12 965.384 1426.69L976.813 1429.23ZM241.917 1167.16C234.552 1178.98 257.283 1170.85 231.504 1179.87C236.584 1165.89 229.472 1171.74 241.917 1167.16ZM1040.31 693.082C1030.91 676.949 1039.04 681.522 1040.31 678.855C1042.21 682.666 1050.98 681.268 1040.31 693.082ZM1157.39 383.761C1140.38 398.751 1147.23 384.777 1146.22 383.761C1159.81 373.345 1151.81 379.061 1157.39 383.761ZM1617.1 834.214C1617.1 850.728 1610.88 837.898 1609.99 834.214C1609.1 830.53 1617.35 821.892 1617.1 834.214ZM145.405 1907.5C145.405 1922.87 140.325 1915.76 138.674 1907.5C137.023 1899.24 145.658 1896.45 145.405 1907.5ZM1063.29 2140.6C1063.29 2157.37 1057.71 2145.81 1056.56 2140.6C1055.42 2135.39 1063.55 2127.9 1063.29 2140.6ZM712.545 1122.83C712.545 1137.56 707.084 1127.66 705.561 1122.83C704.037 1118 712.164 1110.76 712.545 1123.34V1122.83ZM1421.92 933.806C1416.33 939.777 1423.95 937.363 1414.17 938.633C1393.47 941.301 1418.87 944.477 1408.96 933.806C1418.36 927.074 1408.71 924.025 1421.92 933.806ZM750.515 2301.81C744.547 2308.16 752.166 2305.49 742.769 2306.76C724.482 2309.3 746.833 2312.48 737.943 2301.81C751.277 2291.9 742.261 2296.09 750.515 2302.31V2301.81ZM264.014 1122.83C264.014 1138.58 258.807 1128.67 257.537 1122.83C256.267 1116.99 264.141 1110.13 264.014 1123.34V1122.83ZM543.393 1411.95C562.95 1415.38 548.854 1411.95 551.14 1423.89C538.949 1418.81 546.314 1429.23 543.139 1412.46L543.393 1411.95ZM264.014 416.662C264.014 423.268 254.235 429.365 257.41 417.297C258.934 411.073 264.395 402.562 263.76 417.17L264.014 416.662ZM1006.02 1112.29C1006.02 1127.4 1000.69 1118.13 999.036 1112.29C996.877 1103.27 1005.77 1104.28 1006.02 1112.29ZM1738.25 305.891C1720.47 300.683 1734.06 311.608 1727.46 291.918C1742.69 298.65 1731.01 292.426 1738.25 305.891ZM680.416 1040.64C691.973 1057.28 681.813 1049.66 680.416 1053.34C667.209 1027.43 677.242 1044.96 680.416 1040.64ZM1444.65 745.292C1444.65 759.519 1439.69 752.914 1438.04 745.292C1436.39 737.67 1444.77 734.113 1444.65 745.292ZM134.991 989.319C144.007 976.616 139.182 989.319 140.706 990.97C140.706 991.86 143.119 995.417 133.467 998.338C133.975 992.368 128.515 998.973 134.991 989.319ZM399.005 383.761C399.005 398.497 384.274 385.794 392.655 382.237C401.037 378.68 399.259 372.71 399.005 383.761ZM1527.44 749.357C1540.14 758.122 1529.1 759.011 1527.44 762.06C1527.44 760.917 1525.54 759.52 1525.41 759.011C1518.3 730.556 1521.86 759.265 1527.44 749.357ZM947.732 1801.81C947.732 1801.81 943.414 1814.51 941.255 1800.29C939.986 1790.89 947.732 1789.62 947.732 1801.81ZM905.444 839.803L900.11 844.122C880.3 850.855 902.777 848.06 895.031 839.803C913.064 826.211 905.698 839.803 905.698 839.803H905.444ZM952.304 1873.84C952.304 1880.32 947.986 1884.76 945.954 1873.84C944.176 1864.56 952.558 1864.56 952.304 1873.84ZM507.836 1629.18L495.137 1636.8C500.471 1620.79 491.327 1622.82 508.217 1629.56L507.836 1629.18ZM330.049 672.503C330.049 683.174 321.541 678.982 323.064 672.503C323.064 671.741 329.414 658.784 329.922 672.884L330.049 672.503ZM197.598 1028.19C197.598 1039.24 198.232 1030.48 192.645 1029.84C182.867 1029.46 197.598 1011.04 197.471 1028.83L197.598 1028.19ZM456.659 661.833C456.659 671.36 448.277 671.614 450.436 662.722C452.595 653.83 457.04 651.035 456.659 661.833ZM691.465 859.112C696.417 853.268 694.004 855.682 701.878 852.125L699.211 864.828L691.465 859.112ZM420.974 2274.49C414.498 2279.96 415.006 2280.46 408.275 2274.49C411.831 2271.32 412.212 2265.98 420.974 2274.49ZM1056.82 1801.81C1052.12 1806.64 1058.21 1804.99 1049.58 1806L1044.5 1801.81C1052.37 1796.35 1044.37 1791.77 1056.82 1801.81ZM495.264 639.602C481.422 654.465 487.644 644.302 482.565 639.602C483.454 638.84 484.851 635.918 485.105 637.315L495.264 639.602ZM1623.32 1256.85C1619.26 1260.15 1624.21 1267.77 1612.66 1256.85C1624.97 1245.79 1620.78 1254.94 1623.32 1256.85ZM926.779 1562.74C926.779 1570.87 922.207 1571.38 920.556 1562.74C919.667 1557.4 927.667 1548.76 926.779 1562.74ZM1597.54 1062.23C1597.54 1070.87 1601.48 1068.59 1591.19 1063.76C1585.1 1060.84 1597.54 1047.37 1597.54 1062.23ZM542.251 381.475C537.298 387.572 540.346 384.65 532.853 387.191C529.297 366.104 531.583 385.54 536.028 376.902L542.251 381.475ZM965.384 1712.89C965.384 1722.16 965.384 1714.92 960.304 1714.41C951.542 1713.27 966.146 1695.99 965.384 1712.89ZM1017.83 761.933C1011.99 766.633 1012.5 767.904 1006.02 761.933C1019.74 750.881 1015.04 759.647 1017.83 761.933ZM952.812 389.351C952.812 389.351 961.066 403.197 942.271 389.351L947.859 385.667L950.399 386.81C950.399 386.81 951.923 388.715 952.812 389.351ZM741.118 1011.8C741.118 1023.36 737.181 1021.08 735.276 1011.8C733.372 1002.53 741.118 1006.6 741.118 1012.18V1011.8ZM278.237 1006.21C269.601 1013.84 289.412 1012.69 267.57 1012.69C272.522 996.814 264.649 1010.28 272.776 1003.55L278.237 1006.21ZM1000.94 862.034C1000.94 876.642 996.242 867.369 994.846 862.034C993.449 856.698 1000.69 853.65 1000.94 862.034ZM1477.16 1318.08C1464.46 1330.78 1469.28 1320.24 1467 1318.08C1470.68 1314.9 1466.11 1308.42 1477.16 1318.08ZM802.963 974.329C807.788 961.626 802.963 959.213 815.662 969.883L802.963 974.329C820.614 987.795 829.885 989.573 828.361 1027.56C812.868 1040.26 828.361 1038.86 805.756 1042.8C793.057 1044.96 754.96 1038.35 767.024 982.078C772.008 978.096 777.848 975.324 784.083 973.98C790.319 972.635 796.781 972.755 802.963 974.329ZM36.4464 2127.9C38.4783 2113.93 36.4463 2113.67 42.9229 2118.88C32.8906 2138.32 54.4791 2104.91 43.5579 2124.34C38.2242 2134.12 42.7959 2125.99 36.4464 2127.9ZM1158.16 339.3C1155.74 341.968 1167.81 355.941 1148 339.3C1148.89 339.3 1150.41 335.616 1150.79 337.014C1151.17 338.411 1153.08 336.125 1153.46 336.125L1158.16 339.3ZM13.842 1227.63L8.76233 1241.22C4.19067 1231.69 3.93665 1246.43 6.73047 1231.31C8.00037 1221.28 8.00049 1230.04 13.842 1227.63ZM805.756 604.16C799.534 610.004 804.105 606.701 796.74 608.861C791.914 588.79 795.597 607.336 799.153 599.079L805.756 604.16ZM680.416 1212.39C680.416 1224.07 674.194 1214.16 673.94 1212.39C672.416 1205.14 681.051 1202.48 680.416 1212.39ZM815.535 1188.89C818.836 1195.87 821.757 1185.96 817.059 1196.63C812.36 1207.3 812.106 1196.63 810.074 1194.35L815.535 1188.89ZM472.66 795.088C472.66 806.521 478.374 797.248 467.961 796.74C457.548 796.232 472.913 779.336 473.041 795.342L472.66 795.088ZM1662.31 1028.83C1662.31 1029.97 1658.75 1039.5 1656.85 1027.56C1654.94 1015.61 1662.31 1020.19 1662.31 1028.83ZM421.355 177.717C421.355 193.596 407.513 176.7 416.656 176.065C423.768 175.684 421.355 166.538 421.355 177.971V177.717ZM592.158 344.89C592.158 350.225 584.411 355.687 586.57 344.89C587.967 336.76 592.158 333.711 592.158 344.89ZM1707.52 644.302L1704.47 638.586L1705.36 635.283C1705.36 635.283 1706.88 633.123 1707.52 631.98C1708.91 635.41 1718.57 625.629 1707.52 644.302ZM1792.98 1256.85C1788.66 1259.01 1799.33 1269.55 1782.82 1256.85C1788.28 1251.38 1787.65 1252.27 1792.98 1256.85ZM1588.15 451.088C1588.15 458.074 1580.15 463.791 1582.56 451.977C1584.97 440.163 1588.27 445.498 1588.15 451.088ZM188.835 1363.17C179.692 1374.99 193.026 1370.79 177.152 1375.87C186.549 1358.98 174.993 1368.51 188.835 1362.54V1363.17ZM675.083 967.724C675.083 970.264 671.654 977.505 669.622 966.453C667.59 955.402 674.956 959.213 675.083 967.724ZM527.012 183.56C527.012 193.596 517.741 194.739 519.9 183.56C522.821 168.824 510.63 183.56 522.059 181.655C527.392 181.146 527.012 172.381 527.012 183.56ZM285.729 228.021C285.729 233.483 275.189 243.9 278.618 228.021C281.792 214.429 268.839 228.021 280.776 226.243C285.729 225.734 285.475 216.715 285.348 228.021H285.729ZM1017.32 1401.41C1017.32 1402.68 1013.64 1412.08 1011.74 1400.65C1009.83 1389.21 1017.45 1393.66 1017.32 1401.41ZM104.894 878.675C104.894 895.189 100.577 882.74 99.8147 879.31C99.0527 875.88 104.894 870.291 104.894 878.675ZM619.969 524.512C607.27 519.431 614.254 528.45 611.587 513.333C612.984 513.333 611.587 508.887 616.286 516.382C616.794 517.144 618.699 523.623 619.969 524.512ZM757.246 1901.91C757.246 1908.9 758.643 1903.94 752.801 1903.56H751.531C746.452 1900.64 758.262 1888.19 757.246 1901.91ZM1156.38 775.398L1145.46 778.574C1147.74 771.714 1144.57 765.236 1156.38 775.398ZM481.549 589.552C481.549 598.19 474.945 601.112 476.469 590.949C477.993 580.787 481.549 588.536 481.549 589.552ZM762.706 583.962C762.706 586.63 755.595 591.584 757.754 583.2C758.643 579.77 762.96 565.416 762.706 583.962ZM1123.74 289.25C1123.74 295.348 1113.84 301.953 1116.76 289.25C1119.68 276.547 1106.09 289.25 1118.92 287.599C1124.25 286.963 1123.74 277.817 1123.74 289.25ZM1268.76 962.515C1268.76 973.186 1268.76 964.675 1263.81 964.04C1249.72 962.515 1263.81 975.091 1261.65 962.515C1259.49 949.939 1268.76 955.402 1268.76 962.134V962.515ZM841.314 1824.42C841.314 1832.93 843.98 1826.58 837.123 1826.07H835.853C830.012 1823.02 841.568 1810.32 841.314 1824.04V1824.42ZM43.9388 1229.41C43.9388 1241.09 43.9387 1231.69 39.1132 1231.19C26.4141 1229.92 39.875 1242.37 37.0812 1229.53C34.2874 1216.7 43.9388 1222.68 43.9388 1229.03V1229.41ZM417.038 706.293C417.038 718.997 407.386 705.531 411.323 704.261C421.482 701.085 416.657 697.02 417.038 706.293ZM25.1443 745.292C25.1443 753.803 21.7153 754.057 20.0645 745.292C18.4136 736.527 25.3982 738.178 25.1443 745.292ZM166.866 656.37C166.866 661.451 156.961 670.344 160.008 656.37C163.056 642.397 148.452 655.354 162.04 654.719C168.771 654.338 166.866 642.905 166.866 656.243V656.37ZM319.128 628.931C319.128 643.413 305.794 627.407 315.318 627.153C324.842 626.899 319.509 617.245 319.128 628.931ZM456.151 1234.62C456.151 1243.89 455.262 1236.52 451.452 1236.01C440.912 1234.62 452.468 1248.72 449.547 1234.49C446.626 1220.26 456.151 1228.39 456.151 1234.62ZM951.415 2123.83C951.415 2135.39 954.844 2125.99 947.224 2125.74H945.827C941.128 2123.58 952.05 2111.89 951.923 2124.34L951.415 2123.83ZM1803.52 1562.23C1803.52 1573.41 1803.52 1564.52 1798.7 1563.88C1786 1562.36 1798.7 1574.81 1796.67 1562.23C1794.63 1549.65 1804.03 1556.26 1804.03 1562.74L1803.52 1562.23ZM28.1919 1754.55L30.2238 1741.85C41.272 1753.79 33.3987 1749.98 28.7 1755.06L28.1919 1754.55ZM1798.57 2096.65C1798.57 2099.83 1795.01 2104.02 1793.11 2095.38C1791.2 2086.74 1798.57 2087.76 1798.57 2096.65ZM86.6077 172.381C86.6077 179.622 79.4961 184.068 81.528 173.525C83.5598 162.981 86.6077 171.619 86.6077 172.381ZM258.426 1724.07C258.426 1731.82 256.648 1725.85 253.854 1725.21C244.457 1723.18 255.632 1744.27 251.95 1723.43C249.283 1709.33 258.426 1716.83 258.426 1724.07ZM908.746 1990.83C902.65 1997.18 910.143 1994.52 900.745 1995.79C880.935 1998.45 904.809 2001.5 895.666 1990.83H908.746ZM1515.51 917.673C1496.46 931.266 1505.35 917.673 1505.35 917.673H1515.51ZM1539.38 1001.01C1539.38 1009.52 1541.54 1003.04 1535.06 1002.53H1533.79V1001.51C1531.89 989.827 1539.76 997.322 1539.38 1001.01ZM702.894 984.619C683.083 997.322 692.735 984.619 692.608 984.619H702.894ZM1501.16 717.853C1501.16 729.159 1502.17 720.013 1496.46 719.505C1481.35 717.98 1496.46 729.921 1494.43 717.98C1492.4 707.564 1501.28 709.215 1501.16 717.853ZM1276.26 645.573L1265.34 648.24C1277.91 632.361 1271.43 640.491 1276.26 645.191V645.573ZM450.817 562.113L443.96 564.146C443.96 564.146 442.182 562.748 441.293 562.113C446.499 558.556 433.165 550.299 450.69 561.732L450.817 562.113ZM1188.13 956.545C1188.13 962.896 1186.6 958.196 1183.81 957.815C1169.97 955.91 1184.7 969.756 1182.03 956.418C1179.36 943.08 1188.25 951.845 1188.13 956.545ZM1709.68 1217.98C1698.37 1227.12 1704.85 1221.91 1700.15 1215.31L1709.68 1217.98ZM928.556 900.397C928.556 905.859 927.032 901.922 924.493 901.667C912.936 900.016 925.889 914.371 922.842 900.27C919.794 886.17 928.683 896.84 928.683 900.905L928.556 900.397ZM1284.13 1011.68C1284.13 1019.17 1284.89 1013.58 1280.07 1013.07C1265.21 1011.42 1281.08 1024.25 1278.42 1011.68C1275.75 999.1 1284.51 1008.63 1284.51 1012.18L1284.13 1011.68ZM1684.28 2018.78C1684.28 2030.72 1690.5 2019.8 1680.6 2020.81C1674.88 2021.45 1684.28 2007.73 1684.28 2018.78ZM1310.29 1028.83C1310.29 1035.56 1311.43 1030.73 1306.73 1030.22C1296.7 1029.08 1308.26 1042.93 1305.21 1028.95C1302.16 1014.98 1310.54 1026.03 1310.54 1028.83H1310.29ZM699.973 283.661C699.973 286.455 692.227 297.888 695.02 283.661C697.814 269.433 687.02 283.661 696.544 282.39C700.862 281.882 700.227 277.69 700.227 283.661H699.973ZM1138.22 272.482H1128.57C1134.03 267.655 1132.76 269.052 1138.22 272.482ZM1549.41 928.725C1548.53 929.487 1547.38 931.139 1547 931.393L1544.72 925.549C1563 921.103 1541.67 921.865 1549.41 928.725ZM886.649 2074.42C887.411 2059.43 881.951 2069.08 880.427 2075.69C877.379 2089.79 886.268 2082.04 886.649 2074.42Z" fill="white"/>
</svg>
