<svg width="204" height="203" viewBox="0 0 204 203" fill="none" xmlns="http://www.w3.org/2000/svg">
<path fill-rule="evenodd" clip-rule="evenodd" d="M163.376 40.2969C162.66 39.5488 162.287 38.5713 162.287 37.6328C162.287 36.6581 162.66 35.7195 163.376 34.9686C164.84 33.5073 167.207 33.5073 168.675 34.9686C169.424 35.7195 169.801 36.6581 169.801 37.6328C169.801 38.5713 169.424 39.5488 168.675 40.2969C167.959 41.0116 166.983 41.3856 166.043 41.3856C165.067 41.3856 164.089 41.0116 163.376 40.2969ZM152.741 50.9172C152.027 50.1664 151.652 49.1903 151.652 48.2531C151.652 47.2784 152.027 46.3398 152.741 45.589C154.206 44.1262 156.613 44.1262 158.076 45.589C158.792 46.3398 159.167 47.2784 159.167 48.2531C159.167 49.1903 158.792 50.1664 158.076 50.9172C157.325 51.6319 156.385 52.0045 155.409 52.0045C154.433 52.0045 153.493 51.6319 152.741 50.9172ZM142.108 61.5C141.392 60.7853 141.017 59.8106 141.017 58.872C141.017 57.8987 141.392 56.9226 142.108 56.2079C143.571 54.7465 145.978 54.7465 147.443 56.2079C148.157 56.9226 148.533 57.8987 148.533 58.872C148.533 59.8106 148.157 60.7853 147.443 61.5C146.691 62.2508 145.751 62.6249 144.775 62.6249C143.798 62.6249 142.859 62.2508 142.108 61.5ZM131.473 72.1203C130.761 71.4056 130.384 70.4309 130.384 69.4562C130.384 68.5176 130.761 67.5429 131.473 66.8282C132.938 65.3668 135.344 65.3668 136.808 66.8282C137.524 67.5429 137.899 68.5176 137.899 69.4562C137.899 70.4309 137.524 71.4056 136.808 72.1203C136.056 72.8711 135.117 73.2076 134.141 73.2076C133.201 73.2076 132.225 72.8711 131.473 72.1203ZM120.876 82.7392C120.127 82.0259 119.749 81.0498 119.749 80.0751C119.749 79.1365 120.127 78.159 120.876 77.4485C122.307 75.9454 124.709 75.9454 126.174 77.4485C126.926 78.159 127.264 79.1365 127.264 80.0751C127.264 81.0498 126.926 82.0259 126.174 82.7392C125.462 83.4915 124.482 83.8279 123.506 83.8279C122.566 83.8279 121.59 83.4915 120.876 82.7392ZM109.115 90.6954C109.115 89.7569 109.493 88.7794 110.241 88.0313C111.71 86.5658 114.076 86.5658 115.539 88.0313C116.292 88.7794 116.631 89.7569 116.631 90.6954C116.631 91.6701 116.292 92.6087 115.539 93.3595C114.829 94.0701 113.853 94.4483 112.871 94.4483C111.933 94.4483 110.957 94.0701 110.241 93.3595C109.493 92.6087 109.115 91.6701 109.115 90.6954ZM88.9758 114.558C88.2615 113.848 87.8856 112.869 87.8856 111.93C87.8856 110.956 88.2615 110.019 88.9758 109.266C90.4405 107.806 92.8437 107.806 94.2709 109.266C95.0241 110.019 95.4015 110.956 95.4015 111.93C95.4015 112.869 95.0241 113.848 94.2709 114.558C93.5594 115.311 92.5833 115.685 91.6435 115.685C90.6633 115.685 89.7249 115.311 88.9758 114.558ZM78.3425 125.179C77.6268 124.468 77.2509 123.489 77.2509 122.551C77.2509 121.576 77.6268 120.639 78.3425 119.887C79.8058 118.425 82.209 118.425 83.6779 119.887C84.3894 120.639 84.7681 121.576 84.7681 122.551C84.7681 123.489 84.3894 124.468 83.6779 125.179C82.9261 125.931 81.95 126.304 81.0102 126.304C80.0342 126.304 79.0943 125.931 78.3425 125.179ZM67.7077 135.798C66.9921 135.089 66.6189 134.11 66.6189 133.171C66.6189 132.196 66.9921 131.222 67.7077 130.507C69.1725 129.044 71.5785 129.044 73.0432 130.507C73.7561 131.222 74.1334 132.196 74.1334 133.171C74.1334 134.11 73.7561 135.089 73.0432 135.798C72.2913 136.551 71.3515 136.888 70.3755 136.888C69.3994 136.888 68.4596 136.551 67.7077 135.798ZM57.1106 146.418C56.3587 145.705 55.9842 144.729 55.9842 143.754C55.9842 142.815 56.3587 141.842 57.1106 141.09C58.574 139.665 60.9451 139.665 62.4085 141.09C63.1241 141.842 63.5001 142.815 63.5001 143.754C63.5001 144.729 63.1241 145.705 62.4085 146.418C61.6566 147.169 60.7168 147.507 59.7407 147.507C58.8023 147.507 57.8249 147.169 57.1106 146.418ZM46.4759 157.038C45.724 156.324 45.3495 155.349 45.3495 154.374C45.3495 153.436 45.724 152.461 46.4759 151.71C47.9448 150.283 50.3104 150.283 51.7751 151.71C52.527 152.461 52.8653 153.436 52.8653 154.374C52.8653 155.349 52.527 156.324 51.7751 157.038C51.0595 157.753 50.0834 158.127 49.1074 158.127C48.1676 158.127 47.1915 157.753 46.4759 157.038ZM35.8412 167.659C35.0893 166.908 34.7523 165.969 34.7523 164.995C34.7523 164.018 35.0893 163.081 35.8412 162.33C37.3101 160.865 39.6757 160.865 41.1404 162.33C41.8923 163.081 42.2682 164.018 42.2682 164.995C42.2682 165.969 41.8923 166.908 41.1404 167.659C40.4289 168.369 39.4487 168.747 38.5089 168.747C37.5329 168.747 36.5568 168.369 35.8412 167.659ZM41.178 40.2969C40.4651 41.0116 39.4863 41.3856 38.5103 41.3856C37.5705 41.3856 36.5944 41.0116 35.8788 40.2969C35.1297 39.5488 34.7523 38.5713 34.7523 37.6328C34.7523 36.6581 35.1297 35.7195 35.8788 34.9686C37.3463 33.5073 39.7133 33.5073 41.178 34.9686C41.8937 35.7195 42.2668 36.6581 42.2668 37.6328C42.2668 38.5713 41.8937 39.5488 41.178 40.2969ZM51.8127 50.9172C51.0609 51.6319 50.121 52.0045 49.145 52.0045C48.169 52.0045 47.2291 51.6319 46.4773 50.9172C45.7616 50.1664 45.3871 49.1903 45.3871 48.2531C45.3871 47.2784 45.7616 46.3398 46.4773 45.589C47.9406 44.1262 50.348 44.1262 51.8127 45.589C52.527 46.3398 52.9016 47.2784 52.9016 48.2531C52.9016 49.1903 52.527 50.1664 51.8127 50.9172ZM62.4461 61.5C61.6942 62.2508 60.7558 62.6249 59.7783 62.6249C58.8023 62.6249 57.8625 62.2508 57.1106 61.5C56.3963 60.7853 56.0204 59.8106 56.0204 58.872C56.0204 57.8987 56.3963 56.9226 57.1106 56.2079C58.5754 54.7465 60.9827 54.7465 62.4461 56.2079C63.1617 56.9226 63.5363 57.8987 63.5363 58.872C63.5363 59.8106 63.1617 60.7853 62.4461 61.5ZM73.0808 72.1203C72.3289 72.8711 71.3529 73.2076 70.4131 73.2076C69.437 73.2076 68.4972 72.8711 67.7453 72.1203C67.0297 71.4056 66.6551 70.4309 66.6551 69.4562C66.6551 68.5176 67.0297 67.5429 67.7453 66.8282C69.2101 65.3668 71.616 65.3668 73.0808 66.8282C73.7923 67.5429 74.1696 68.5176 74.1696 69.4562C74.1696 70.4309 73.7923 71.4056 73.0808 72.1203ZM83.6779 82.7392C82.9636 83.4915 81.9876 83.8279 81.0478 83.8279C80.0717 83.8279 79.0915 83.4915 78.3801 82.7392C77.6282 82.0259 77.2898 81.0498 77.2898 80.0751C77.2898 79.1365 77.6282 78.159 78.3801 77.4485C79.8448 75.9454 82.2466 75.9454 83.6779 77.4485C84.427 78.159 84.8043 79.1365 84.8043 80.0751C84.8043 81.0498 84.427 82.0259 83.6779 82.7392ZM95.439 90.6954C95.439 91.6701 95.0603 92.6087 94.3126 93.3595C93.597 94.0701 92.6209 94.4483 91.6825 94.4483C90.7009 94.4483 89.7249 94.0701 89.0148 93.3595C88.2615 92.6087 87.9232 91.6701 87.9232 90.6954C87.9232 89.7569 88.2615 88.7794 89.0148 88.0313C90.4781 86.5658 92.8437 86.5658 94.3126 88.0313C95.0603 88.7794 95.439 89.7569 95.439 90.6954ZM115.578 114.558C114.829 115.311 113.89 115.685 112.91 115.685C111.97 115.685 110.994 115.311 110.283 114.558C109.53 113.848 109.152 112.869 109.152 111.93C109.152 110.956 109.53 110.019 110.283 109.266C111.71 107.806 114.113 107.806 115.578 109.266C116.292 110.019 116.668 110.956 116.668 111.93C116.668 112.869 116.292 113.848 115.578 114.558ZM126.211 125.179C125.459 125.931 124.52 126.304 123.544 126.304C122.604 126.304 121.628 125.931 120.876 125.179C120.164 124.468 119.786 123.489 119.786 122.551C119.786 121.576 120.164 120.639 120.876 119.887C122.345 118.425 124.748 118.425 126.211 119.887C126.927 120.639 127.303 121.576 127.303 122.551C127.303 123.489 126.927 124.468 126.211 125.179ZM136.846 135.798C136.094 136.551 135.154 136.888 134.178 136.888C133.202 136.888 132.262 136.551 131.51 135.798C130.798 135.089 130.42 134.11 130.42 133.171C130.42 132.196 130.798 131.222 131.51 130.507C132.975 129.044 135.381 129.044 136.846 130.507C137.562 131.222 137.935 132.196 137.935 133.171C137.935 134.11 137.562 135.089 136.846 135.798ZM147.443 146.418C146.729 147.169 145.751 147.507 144.813 147.507C143.837 147.507 142.897 147.169 142.145 146.418C141.43 145.705 141.054 144.729 141.054 143.754C141.054 142.815 141.43 141.842 142.145 141.09C143.609 139.665 145.98 139.665 147.443 141.09C148.195 141.842 148.569 142.815 148.569 143.754C148.569 144.729 148.195 145.705 147.443 146.418ZM158.078 157.038C157.362 157.753 156.386 158.127 155.446 158.127C154.47 158.127 153.494 157.753 152.779 157.038C152.027 156.324 151.688 155.349 151.688 154.374C151.688 153.436 152.027 152.461 152.779 151.71C154.243 150.283 156.609 150.283 158.078 151.71C158.83 152.461 159.204 153.436 159.204 154.374C159.204 155.349 158.83 156.324 158.078 157.038ZM168.713 167.659C167.997 168.369 167.021 168.747 166.045 168.747C165.105 168.747 164.125 168.369 163.413 167.659C162.661 166.908 162.285 165.969 162.285 164.995C162.285 164.018 162.661 163.081 163.413 162.33C164.878 160.865 167.244 160.865 168.713 162.33C169.464 163.081 169.801 164.018 169.801 164.995C169.801 165.969 169.464 166.908 168.713 167.659ZM99.6105 103.98C98.8586 103.229 98.5203 102.29 98.5203 101.316C98.5203 100.337 98.8586 99.3983 99.6105 98.6516C101.075 97.1847 103.441 97.1847 104.906 98.6516C105.657 99.3983 105.996 100.337 105.996 101.316C105.996 102.29 105.657 103.229 104.906 103.98C104.194 104.69 103.218 105.069 102.278 105.069C101.298 105.069 100.322 104.69 99.6105 103.98ZM66.4552 43.1698L43.6332 20.3788C61.2686 6.81785 80.757 0.0221151 102.1 4.55409e-05C123.333 -0.0203264 142.833 6.79408 160.606 20.4178L137.747 43.2445C126.831 36.1602 114.943 32.6138 102.081 32.641C89.0494 32.6681 77.1786 36.1908 66.4552 43.1698ZM43.9589 136.906L21.1556 159.678C7.6851 142.045 0.946443 122.579 0.966843 101.27C0.988943 79.766 7.697 60.3006 21.0893 42.8741L43.8841 65.638C36.7375 76.4437 33.1318 88.312 33.1063 101.257C33.0825 114.033 36.712 125.912 43.9589 136.906ZM137.932 159.559L160.662 182.258C143.241 195.662 123.837 202.449 102.452 202.617C80.8503 202.788 61.2259 196.008 43.5718 182.301L66.2714 159.632C77.2039 167.056 89.2175 170.738 102.319 170.65C115.215 170.562 127.081 166.852 137.932 159.559ZM160.405 65.6265L183.24 42.8218C196.966 60.452 203.755 80.0498 203.584 101.622C203.415 122.895 196.605 142.261 183.171 159.726L160.36 136.947C167.398 126.267 171.009 114.589 171.16 101.902C171.317 88.752 167.721 76.6613 160.405 65.6265ZM184.28 166.905C193.04 166.905 200.14 173.998 200.14 182.744C200.14 191.491 193.04 198.583 184.28 198.583C175.522 198.583 168.421 191.491 168.421 182.744C168.421 173.998 175.522 166.905 184.28 166.905ZM20.274 166.907C29.0322 166.907 36.1346 173.998 36.1346 182.744C36.1346 191.492 29.0322 198.583 20.274 198.583C11.514 198.583 4.4133 191.492 4.4133 182.744C4.4133 173.998 11.514 166.907 20.274 166.907ZM184.28 3.24088C193.038 3.24088 200.14 10.332 200.14 19.08C200.14 27.8281 193.038 34.9192 184.28 34.9192C175.522 34.9192 168.419 27.8281 168.419 19.08C168.419 10.332 175.522 3.24088 184.28 3.24088ZM20.274 3.24088C29.0339 3.24088 36.1346 10.332 36.1346 19.08C36.1346 27.8264 29.0339 34.9192 20.274 34.9192C11.514 34.9192 4.4133 27.8264 4.4133 19.08C4.4133 10.332 11.514 3.24088 20.274 3.24088Z" fill="white"/>
</svg>
