<svg width="900" height="955" viewBox="0 0 900 955" fill="none" xmlns="http://www.w3.org/2000/svg">
<path d="M154.818 500.524C156.712 561.004 163.978 615.284 176.632 663.311H0.829102L0.950429 568.176C8.72776 568.08 32.7504 566.825 54.5478 550.441C78.6691 532.311 85.6624 507.675 87.4224 500.524H154.818Z" fill="white"/>
<path d="M899.731 872.852C832.238 919.172 739.598 954.905 567.545 954.905C304.185 954.905 173.158 796.092 173.158 486.412C173.158 151.585 367.705 0.70505 613.865 0.70505C781.958 0.70505 865.971 66.8517 897.891 100.078C898.091 100.292 898.278 100.492 898.478 100.692V305.092H696.211V192.198C671.518 181.905 641.985 175.398 605.931 175.398C484.172 175.398 380.945 242.892 380.945 462.585C380.945 691.545 455.052 790.798 609.891 790.798C637.691 790.798 678.718 785.505 697.238 777.572L696.211 663.305H434.652C413.932 622.012 401.491 568.105 397.091 500.518H898.451L898.705 598.265L899.731 872.852Z" fill="white"/>
<path d="M0.829102 321.11H174.458C161.938 369.443 154.952 423.63 154.352 483.896H87.4224C86.6504 478.491 81.2878 444.942 50.5918 424.862C29.0851 410.792 8.6931 411.135 0.950435 411.652L0.829102 321.11Z" fill="white"/>
<path d="M899.481 321.11V483.896H396.46C396.368 478.243 396.314 472.496 396.314 466.67C396.314 407.736 403.741 359.763 416.968 321.11H899.481Z" fill="white"/>
</svg>
