<svg xmlns="http://www.w3.org/2000/svg" viewBox="0 0 1600 900"><defs><style>.mainbgmask{fill:#062038;fill-rule:evenodd;isolation:isolate;opacity:0.71;}</style></defs><path class="mainbgmask" d="M236.29,491.11,293,391.46l-16.77-26.63,35.52-21.22V288.36L399.56,128,442,133l29.6-49.33,81.88-67.09,111,12.83L676,0h47.16V16.55l71.52,148,58.7-142.07L913.55,1.75,915.3,0h61.12l8.66,8.66V43.19L1031,63.91l25.65,54.26H1136l58.7,33.55L1212,196.61l-52.78,91.75L1212,330.3,1280.05,318l36,131.22-9.37,34.53-16.28,13.82,25.65,54.26-44.89,57.72,19.24,60.18H1249L1119.65,900H452.47l-36.14-92.18-43.9-24.17-25.16,24.17v-6.91l-8.38-26.64-39-18.25,24.66-99.16ZM0,900V0H1600V900Z"/></svg>